<svg xmlns="http://www.w3.org/2000/svg" xmlns:xlink="http://www.w3.org/1999/xlink" width="1920" zoomAndPan="magnify" viewBox="0 0 1440 74.999997" height="100" preserveAspectRatio="xMidYMid meet" version="1.0"><defs><filter x="0%" y="0%" width="100%" height="100%" id="0642ae62e8"><feColorMatrix values="0 0 0 0 1 0 0 0 0 1 0 0 0 0 1 0 0 0 1 0" color-interpolation-filters="sRGB"/></filter><g/><mask id="9cb1827ce4"><g filter="url(#0642ae62e8)"><rect x="-144" width="1728" fill="#000000" y="-7.5" height="89.999996" fill-opacity="0.73"/></g></mask><clipPath id="0b4d9c3dc2"><path d="M 0.511719 0.117188 L 46.027344 0.117188 L 46.027344 45.628906 L 0.511719 45.628906 Z M 0.511719 0.117188 " clip-rule="nonzero"/></clipPath><clipPath id="bcc95a0c41"><path d="M 23.269531 0.117188 C 10.699219 0.117188 0.511719 10.304688 0.511719 22.871094 C 0.511719 35.441406 10.699219 45.628906 23.269531 45.628906 C 35.835938 45.628906 46.027344 35.441406 46.027344 22.871094 C 46.027344 10.304688 35.835938 0.117188 23.269531 0.117188 Z M 23.269531 0.117188 " clip-rule="nonzero"/></clipPath><clipPath id="3e04360666"><rect x="0" width="47" y="0" height="46"/></clipPath><mask id="24ebf0ca46"><g filter="url(#0642ae62e8)"><rect x="-144" width="1728" fill="#000000" y="-7.5" height="89.999996" fill-opacity="0.41"/></g></mask><clipPath id="c5e5410e59"><path d="M 0 0 L 1440 0 L 1440 3 L 0 3 Z M 0 0 " clip-rule="nonzero"/></clipPath><clipPath id="5301c197d7"><rect x="0" width="1440" y="0" height="3"/></clipPath></defs><rect x="-144" width="1728" fill="#ffffff" y="-7.5" height="89.999996" fill-opacity="1"/><rect x="-144" width="1728" fill="#ffffff" y="-7.5" height="89.999996" fill-opacity="1"/><g mask="url(#9cb1827ce4)"><g transform="matrix(1, 0, 0, 1, 251, 16)"><g clip-path="url(#3e04360666)"><g clip-path="url(#0b4d9c3dc2)"><g clip-path="url(#bcc95a0c41)"><path fill="#5b0e9f" d="M 0.511719 0.117188 L 46.027344 0.117188 L 46.027344 45.628906 L 0.511719 45.628906 Z M 0.511719 0.117188 " fill-opacity="1" fill-rule="nonzero"/></g></g></g></g></g><g fill="#000000" fill-opacity="1"><g transform="translate(255.405066, 48.748306)"><g><path d="M 2.28125 0.109375 C 2.070312 0.109375 1.910156 0.03125 1.796875 -0.125 C 1.679688 -0.289062 1.625 -0.488281 1.625 -0.71875 C 1.65625 -1.101562 1.734375 -1.332031 1.859375 -1.40625 C 1.984375 -1.476562 2.222656 -1.515625 2.578125 -1.515625 C 3.316406 -1.515625 3.859375 -1.644531 4.203125 -1.90625 C 4.554688 -2.175781 4.773438 -2.503906 4.859375 -2.890625 C 4.953125 -3.285156 5.015625 -3.800781 5.046875 -4.4375 L 5.046875 -19.5 C 5.015625 -20.132812 4.953125 -20.644531 4.859375 -21.03125 C 4.773438 -21.425781 4.554688 -21.753906 4.203125 -22.015625 C 3.859375 -22.285156 3.316406 -22.421875 2.578125 -22.421875 L 2.359375 -22.421875 C 2.097656 -22.421875 1.914062 -22.460938 1.8125 -22.546875 C 1.71875 -22.640625 1.65625 -22.863281 1.625 -23.21875 C 1.625 -23.445312 1.679688 -23.640625 1.796875 -23.796875 C 1.910156 -23.960938 2.070312 -24.046875 2.28125 -24.046875 C 3.945312 -23.972656 5.453125 -23.9375 6.796875 -23.9375 C 8.304688 -23.9375 9.882812 -23.972656 11.53125 -24.046875 C 11.757812 -24.046875 11.929688 -23.960938 12.046875 -23.796875 C 12.160156 -23.640625 12.21875 -23.445312 12.21875 -23.21875 C 12.1875 -22.84375 12.101562 -22.613281 11.96875 -22.53125 C 11.832031 -22.457031 11.597656 -22.421875 11.265625 -22.421875 C 10.535156 -22.421875 9.992188 -22.285156 9.640625 -22.015625 C 9.285156 -21.753906 9.0625 -21.425781 8.96875 -21.03125 C 8.882812 -20.644531 8.828125 -20.132812 8.796875 -19.5 L 8.796875 -3.875 C 8.847656 -3.34375 8.910156 -2.929688 8.984375 -2.640625 C 9.066406 -2.347656 9.296875 -2.082031 9.671875 -1.84375 C 10.054688 -1.601562 10.648438 -1.492188 11.453125 -1.515625 L 14.875 -1.515625 C 15.757812 -1.546875 16.425781 -1.691406 16.875 -1.953125 C 17.332031 -2.222656 17.691406 -2.632812 17.953125 -3.1875 C 18.222656 -3.738281 18.550781 -4.648438 18.9375 -5.921875 C 19.113281 -6.367188 19.539062 -6.546875 20.21875 -6.453125 C 20.445312 -6.398438 20.660156 -6.296875 20.859375 -6.140625 C 21.066406 -5.992188 21.15625 -5.804688 21.125 -5.578125 L 20.375 -0.796875 C 20.300781 -0.460938 20.1875 -0.242188 20.03125 -0.140625 C 19.875 -0.046875 19.617188 0 19.265625 0 L 6.828125 0 C 5.460938 0 3.945312 0.0351562 2.28125 0.109375 Z M 2.28125 0.109375 "/></g></g></g><g fill="#000000" fill-opacity="1"><g transform="translate(277.061513, 48.748306)"><g><path d="M 10.4375 0.453125 C 8.539062 0.453125 6.925781 0.0507812 5.59375 -0.75 C 4.269531 -1.5625 3.265625 -2.660156 2.578125 -4.046875 C 1.898438 -5.441406 1.5625 -6.988281 1.5625 -8.6875 C 1.5625 -10.175781 1.90625 -11.609375 2.59375 -12.984375 C 3.289062 -14.367188 4.285156 -15.488281 5.578125 -16.34375 C 6.867188 -17.207031 8.347656 -17.640625 10.015625 -17.640625 C 12.265625 -17.640625 13.992188 -17.0625 15.203125 -15.90625 C 16.421875 -14.757812 17.117188 -13.210938 17.296875 -11.265625 C 17.296875 -10.429688 17.066406 -9.863281 16.609375 -9.5625 C 16.160156 -9.257812 15.503906 -9.109375 14.640625 -9.109375 L 5.421875 -9.109375 C 5.421875 -6.753906 5.90625 -4.882812 6.875 -3.5 C 7.851562 -2.125 9.367188 -1.4375 11.421875 -1.4375 C 12.503906 -1.4375 13.425781 -1.671875 14.1875 -2.140625 C 14.945312 -2.609375 15.664062 -3.398438 16.34375 -4.515625 C 16.476562 -4.640625 16.609375 -4.703125 16.734375 -4.703125 C 16.910156 -4.703125 17.0625 -4.648438 17.1875 -4.546875 C 17.4375 -4.398438 17.5625 -4.175781 17.5625 -3.875 C 17.5625 -3.71875 17.535156 -3.601562 17.484375 -3.53125 C 16.703125 -2.257812 15.707031 -1.273438 14.5 -0.578125 C 13.300781 0.109375 11.945312 0.453125 10.4375 0.453125 Z M 11.609375 -10.546875 C 12.898438 -10.546875 13.582031 -11.078125 13.65625 -12.140625 C 13.65625 -13.304688 13.335938 -14.289062 12.703125 -15.09375 C 12.078125 -15.90625 11.179688 -16.3125 10.015625 -16.3125 C 8.722656 -16.3125 7.660156 -15.796875 6.828125 -14.765625 C 5.992188 -13.742188 5.523438 -12.335938 5.421875 -10.546875 Z M 11.609375 -10.546875 "/></g></g></g><g fill="#000000" fill-opacity="1"><g transform="translate(296.100983, 48.748306)"><g><path d="M 8.1875 0.640625 C 6.945312 0.640625 5.882812 0.1875 5 -0.71875 C 4.125 -1.632812 3.6875 -2.9375 3.6875 -4.625 L 3.6875 -15.78125 L 1.484375 -15.703125 C 1.328125 -15.703125 1.195312 -15.769531 1.09375 -15.90625 C 1 -16.050781 0.953125 -16.210938 0.953125 -16.390625 C 0.953125 -16.617188 0.992188 -16.8125 1.078125 -16.96875 C 1.171875 -17.132812 1.304688 -17.234375 1.484375 -17.265625 C 2.367188 -17.441406 3.054688 -17.722656 3.546875 -18.109375 C 4.035156 -18.503906 4.394531 -18.9375 4.625 -19.40625 C 4.851562 -19.875 5.132812 -20.585938 5.46875 -21.546875 C 5.59375 -21.878906 5.867188 -22.046875 6.296875 -22.046875 C 6.472656 -22.046875 6.648438 -22 6.828125 -21.90625 C 7.003906 -21.820312 7.09375 -21.691406 7.09375 -21.515625 L 6.828125 -17.1875 L 11.265625 -17.453125 L 11.34375 -17.453125 C 11.675781 -17.453125 11.84375 -17.210938 11.84375 -16.734375 C 11.84375 -16.453125 11.796875 -16.191406 11.703125 -15.953125 C 11.617188 -15.710938 11.507812 -15.59375 11.375 -15.59375 L 7.125 -15.703125 L 7.125 -4.171875 C 7.125 -3.335938 7.296875 -2.640625 7.640625 -2.078125 C 7.984375 -1.523438 8.546875 -1.25 9.328125 -1.25 C 10.117188 -1.25 10.816406 -1.390625 11.421875 -1.671875 C 11.742188 -1.796875 11.945312 -1.859375 12.03125 -1.859375 C 12.207031 -1.859375 12.34375 -1.785156 12.4375 -1.640625 C 12.539062 -1.503906 12.644531 -1.320312 12.75 -1.09375 C 12.769531 -1.050781 12.78125 -0.988281 12.78125 -0.90625 C 12.78125 -0.8125 12.707031 -0.695312 12.5625 -0.5625 C 11.820312 -0.0820312 11.128906 0.234375 10.484375 0.390625 C 9.835938 0.554688 9.070312 0.640625 8.1875 0.640625 Z M 8.1875 0.640625 "/></g></g></g><g fill="#000000" fill-opacity="1"><g transform="translate(310.475403, 48.748306)"><g><path d="M 1.859375 0.109375 C 1.679688 0.109375 1.535156 0.0351562 1.421875 -0.109375 C 1.304688 -0.265625 1.25 -0.441406 1.25 -0.640625 C 1.28125 -0.972656 1.359375 -1.171875 1.484375 -1.234375 C 1.609375 -1.296875 1.832031 -1.328125 2.15625 -1.328125 C 2.820312 -1.328125 3.289062 -1.441406 3.5625 -1.671875 C 3.84375 -1.898438 4 -2.164062 4.03125 -2.46875 C 4.070312 -2.769531 4.09375 -3.25 4.09375 -3.90625 L 4.09375 -12.59375 C 4.09375 -13.25 4.070312 -13.726562 4.03125 -14.03125 C 4 -14.332031 3.84375 -14.597656 3.5625 -14.828125 C 3.289062 -15.054688 2.820312 -15.171875 2.15625 -15.171875 C 1.851562 -15.171875 1.625 -15.210938 1.46875 -15.296875 C 1.320312 -15.390625 1.25 -15.601562 1.25 -15.9375 C 1.25 -16.082031 1.300781 -16.222656 1.40625 -16.359375 C 1.507812 -16.503906 1.660156 -16.585938 1.859375 -16.609375 C 3.453125 -16.835938 4.816406 -17.171875 5.953125 -17.609375 C 6.304688 -17.734375 6.597656 -17.804688 6.828125 -17.828125 L 6.9375 -17.828125 C 7.34375 -17.828125 7.546875 -17.585938 7.546875 -17.109375 L 7.546875 -3.90625 C 7.546875 -3.25 7.570312 -2.769531 7.625 -2.46875 C 7.675781 -2.164062 7.835938 -1.898438 8.109375 -1.671875 C 8.390625 -1.441406 8.859375 -1.328125 9.515625 -1.328125 L 9.75 -1.328125 C 9.945312 -1.328125 10.097656 -1.285156 10.203125 -1.203125 C 10.304688 -1.128906 10.367188 -0.941406 10.390625 -0.640625 C 10.390625 -0.441406 10.335938 -0.265625 10.234375 -0.109375 C 10.140625 0.0351562 9.988281 0.109375 9.78125 0.109375 C 8.320312 0.0351562 6.992188 0 5.796875 0 C 4.660156 0 3.347656 0.0351562 1.859375 0.109375 Z M 4.546875 -20.0625 C 4.421875 -20.113281 4.320312 -20.207031 4.25 -20.34375 C 4.175781 -20.488281 4.140625 -20.648438 4.140625 -20.828125 C 4.140625 -20.984375 4.1875 -21.148438 4.28125 -21.328125 L 7.125 -26.515625 C 7.40625 -27.097656 7.863281 -27.390625 8.5 -27.390625 C 8.675781 -27.390625 8.914062 -27.328125 9.21875 -27.203125 C 9.5 -27.046875 9.726562 -26.84375 9.90625 -26.59375 C 10.082031 -26.34375 10.171875 -26.078125 10.171875 -25.796875 C 10.171875 -25.492188 10.054688 -25.203125 9.828125 -24.921875 L 5.953125 -20.40625 C 5.671875 -20.101562 5.367188 -19.953125 5.046875 -19.953125 C 4.867188 -19.953125 4.703125 -19.988281 4.546875 -20.0625 Z M 4.546875 -20.0625 "/></g></g></g><g fill="#000000" fill-opacity="1"><g transform="translate(321.701858, 48.748306)"><g><path d="M 9.828125 0.453125 C 7.242188 0.453125 5.21875 -0.367188 3.75 -2.015625 C 2.289062 -3.660156 1.5625 -5.859375 1.5625 -8.609375 C 1.601562 -10.328125 2.019531 -11.863281 2.8125 -13.21875 C 3.613281 -14.570312 4.6875 -15.632812 6.03125 -16.40625 C 7.375 -17.175781 8.851562 -17.585938 10.46875 -17.640625 C 12.09375 -17.640625 13.488281 -17.332031 14.65625 -16.71875 C 15.832031 -16.113281 16.421875 -15.109375 16.421875 -13.703125 C 16.421875 -12.910156 16.1875 -12.21875 15.71875 -11.625 C 15.25 -11.03125 14.625 -10.734375 13.84375 -10.734375 C 13.363281 -10.734375 12.953125 -10.859375 12.609375 -11.109375 C 12.273438 -11.367188 12.109375 -11.585938 12.109375 -11.765625 C 12.109375 -11.785156 12.21875 -11.894531 12.4375 -12.09375 C 12.664062 -12.300781 12.875 -12.550781 13.0625 -12.84375 C 13.257812 -13.132812 13.359375 -13.46875 13.359375 -13.84375 C 13.359375 -14.625 13.070312 -15.21875 12.5 -15.625 C 11.925781 -16.03125 11.238281 -16.234375 10.4375 -16.234375 C 8.488281 -16.234375 7.164062 -15.519531 6.46875 -14.09375 C 5.769531 -12.664062 5.421875 -10.875 5.421875 -8.71875 C 5.421875 -6.59375 5.898438 -4.847656 6.859375 -3.484375 C 7.828125 -2.117188 9.109375 -1.4375 10.703125 -1.4375 C 11.785156 -1.4375 12.710938 -1.671875 13.484375 -2.140625 C 14.253906 -2.609375 14.957031 -3.320312 15.59375 -4.28125 C 15.664062 -4.414062 15.789062 -4.484375 15.96875 -4.484375 C 16.09375 -4.484375 16.234375 -4.441406 16.390625 -4.359375 C 16.515625 -4.304688 16.613281 -4.21875 16.6875 -4.09375 C 16.769531 -3.96875 16.8125 -3.84375 16.8125 -3.71875 C 16.8125 -3.644531 16.769531 -3.546875 16.6875 -3.421875 C 15.851562 -2.222656 14.816406 -1.273438 13.578125 -0.578125 C 12.335938 0.109375 11.085938 0.453125 9.828125 0.453125 Z M 9.828125 0.453125 "/></g></g></g><g fill="#000000" fill-opacity="1"><g transform="translate(339.717286, 48.748306)"><g><path d="M 1.859375 0.109375 C 1.679688 0.109375 1.535156 0.0351562 1.421875 -0.109375 C 1.304688 -0.265625 1.25 -0.441406 1.25 -0.640625 C 1.28125 -0.972656 1.359375 -1.171875 1.484375 -1.234375 C 1.609375 -1.296875 1.832031 -1.328125 2.15625 -1.328125 C 2.820312 -1.328125 3.289062 -1.441406 3.5625 -1.671875 C 3.84375 -1.898438 4 -2.164062 4.03125 -2.46875 C 4.070312 -2.769531 4.09375 -3.25 4.09375 -3.90625 L 4.09375 -12.59375 C 4.09375 -13.25 4.070312 -13.726562 4.03125 -14.03125 C 4 -14.332031 3.84375 -14.597656 3.5625 -14.828125 C 3.289062 -15.054688 2.820312 -15.171875 2.15625 -15.171875 C 1.851562 -15.171875 1.625 -15.210938 1.46875 -15.296875 C 1.320312 -15.390625 1.25 -15.601562 1.25 -15.9375 C 1.25 -16.082031 1.300781 -16.222656 1.40625 -16.359375 C 1.507812 -16.503906 1.660156 -16.585938 1.859375 -16.609375 C 3.453125 -16.835938 4.816406 -17.171875 5.953125 -17.609375 C 6.304688 -17.734375 6.597656 -17.804688 6.828125 -17.828125 L 6.9375 -17.828125 C 7.34375 -17.828125 7.546875 -17.585938 7.546875 -17.109375 L 7.546875 -3.90625 C 7.546875 -3.25 7.570312 -2.769531 7.625 -2.46875 C 7.675781 -2.164062 7.835938 -1.898438 8.109375 -1.671875 C 8.390625 -1.441406 8.859375 -1.328125 9.515625 -1.328125 L 9.75 -1.328125 C 9.945312 -1.328125 10.097656 -1.285156 10.203125 -1.203125 C 10.304688 -1.128906 10.367188 -0.941406 10.390625 -0.640625 C 10.390625 -0.441406 10.335938 -0.265625 10.234375 -0.109375 C 10.140625 0.0351562 9.988281 0.109375 9.78125 0.109375 C 8.320312 0.0351562 6.992188 0 5.796875 0 C 4.660156 0 3.347656 0.0351562 1.859375 0.109375 Z M 5.609375 -22.046875 C 4.898438 -22.046875 4.304688 -22.265625 3.828125 -22.703125 C 3.347656 -23.148438 3.109375 -23.703125 3.109375 -24.359375 C 3.109375 -24.941406 3.398438 -25.457031 3.984375 -25.90625 C 4.566406 -26.363281 5.222656 -26.59375 5.953125 -26.59375 C 6.585938 -26.59375 7.109375 -26.367188 7.515625 -25.921875 C 7.921875 -25.484375 8.125 -24.921875 8.125 -24.234375 C 8.125 -23.628906 7.878906 -23.113281 7.390625 -22.6875 C 6.910156 -22.257812 6.316406 -22.046875 5.609375 -22.046875 Z M 5.609375 -22.046875 "/></g></g></g><g fill="#000000" fill-opacity="1"><g transform="translate(350.943741, 48.748306)"><g><path d="M 6.375 0.453125 C 4.851562 0.453125 3.625 0.0234375 2.6875 -0.828125 C 1.757812 -1.691406 1.296875 -2.769531 1.296875 -4.0625 C 1.296875 -5.65625 1.828125 -6.847656 2.890625 -7.640625 C 3.953125 -8.441406 5.210938 -8.960938 6.671875 -9.203125 C 8.140625 -9.441406 10.039062 -9.625 12.375 -9.75 L 12.375 -12.75 C 12.375 -13.988281 12.0625 -14.929688 11.4375 -15.578125 C 10.820312 -16.222656 9.828125 -16.546875 8.453125 -16.546875 C 7.671875 -16.546875 6.988281 -16.300781 6.40625 -15.8125 C 5.820312 -15.332031 5.53125 -14.691406 5.53125 -13.890625 C 5.53125 -13.484375 5.625 -13.144531 5.8125 -12.875 C 6.007812 -12.613281 6.210938 -12.394531 6.421875 -12.21875 C 6.640625 -12.039062 6.75 -11.9375 6.75 -11.90625 C 6.75 -11.757812 6.585938 -11.566406 6.265625 -11.328125 C 5.953125 -11.085938 5.570312 -10.96875 5.125 -10.96875 C 4.363281 -10.96875 3.757812 -11.242188 3.3125 -11.796875 C 2.875 -12.359375 2.65625 -13.015625 2.65625 -13.765625 C 2.65625 -15.085938 3.242188 -16.0625 4.421875 -16.6875 C 5.597656 -17.320312 7.019531 -17.640625 8.6875 -17.640625 C 10.757812 -17.640625 12.445312 -17.242188 13.75 -16.453125 C 15.050781 -15.671875 15.703125 -14.222656 15.703125 -12.109375 L 15.703125 -3.265625 C 15.734375 -2.734375 15.898438 -2.226562 16.203125 -1.75 C 16.503906 -1.269531 16.992188 -1.03125 17.671875 -1.03125 C 17.878906 -1.03125 18.023438 -0.988281 18.109375 -0.90625 C 18.203125 -0.832031 18.25 -0.671875 18.25 -0.421875 C 18.25 -0.117188 18.015625 0.0976562 17.546875 0.234375 C 17.078125 0.378906 16.613281 0.453125 16.15625 0.453125 C 15.195312 0.453125 14.347656 0.175781 13.609375 -0.375 C 12.878906 -0.9375 12.46875 -1.6875 12.375 -2.625 C 11.84375 -1.632812 11.023438 -0.875 9.921875 -0.34375 C 8.816406 0.1875 7.632812 0.453125 6.375 0.453125 Z M 7.59375 -1.59375 C 8.445312 -1.59375 9.238281 -1.804688 9.96875 -2.234375 C 10.707031 -2.671875 11.289062 -3.257812 11.71875 -4 C 12.15625 -4.75 12.375 -5.578125 12.375 -6.484375 L 12.375 -8.65625 C 9.71875 -8.445312 7.84375 -8.015625 6.75 -7.359375 C 5.664062 -6.703125 5.125 -5.640625 5.125 -4.171875 C 5.125 -2.453125 5.945312 -1.59375 7.59375 -1.59375 Z M 7.59375 -1.59375 "/></g></g></g><g mask="url(#24ebf0ca46)"><g transform="matrix(1, 0, 0, 1, 0, 72)"><g clip-path="url(#5301c197d7)"><g clip-path="url(#c5e5410e59)"><path fill="#5b0e9f" d="M 0 0.210938 L 1440 0.210938 L 1440 6.820312 L 0 6.820312 Z M 0 0.210938 " fill-opacity="1" fill-rule="nonzero"/></g></g></g></g><g fill="#000000" fill-opacity="1"><g transform="translate(679.856925, 48.61511)"><g><path d="M 1.8125 0.09375 C 1.65625 0.09375 1.523438 0.03125 1.421875 -0.09375 C 1.316406 -0.226562 1.265625 -0.390625 1.265625 -0.578125 C 1.285156 -0.878906 1.347656 -1.054688 1.453125 -1.109375 C 1.566406 -1.171875 1.769531 -1.203125 2.0625 -1.203125 C 2.644531 -1.203125 3.078125 -1.304688 3.359375 -1.515625 C 3.640625 -1.734375 3.8125 -2 3.875 -2.3125 C 3.945312 -2.625 3.992188 -3.03125 4.015625 -3.53125 L 4.015625 -15.53125 C 3.992188 -16.03125 3.945312 -16.4375 3.875 -16.75 C 3.8125 -17.0625 3.640625 -17.320312 3.359375 -17.53125 C 3.078125 -17.75 2.644531 -17.859375 2.0625 -17.859375 L 1.875 -17.859375 C 1.675781 -17.859375 1.53125 -17.894531 1.4375 -17.96875 C 1.34375 -18.039062 1.285156 -18.21875 1.265625 -18.5 C 1.265625 -18.675781 1.316406 -18.828125 1.421875 -18.953125 C 1.523438 -19.085938 1.65625 -19.15625 1.8125 -19.15625 C 3.125 -19.09375 4.332031 -19.0625 5.4375 -19.0625 L 9.96875 -19.0625 C 11.71875 -19.0625 13.414062 -18.695312 15.0625 -17.96875 C 16.707031 -17.25 17.53125 -15.800781 17.53125 -13.625 C 17.53125 -12.414062 17.164062 -11.335938 16.4375 -10.390625 C 15.707031 -9.441406 14.765625 -8.707031 13.609375 -8.1875 C 12.453125 -7.664062 11.25 -7.40625 10 -7.40625 C 8.851562 -7.40625 7.847656 -7.566406 6.984375 -7.890625 L 6.984375 -3.53125 C 7.003906 -3.03125 7.046875 -2.625 7.109375 -2.3125 C 7.179688 -2 7.359375 -1.734375 7.640625 -1.515625 C 7.921875 -1.304688 8.351562 -1.203125 8.9375 -1.203125 L 9.125 -1.203125 C 9.320312 -1.203125 9.46875 -1.164062 9.5625 -1.09375 C 9.65625 -1.03125 9.710938 -0.859375 9.734375 -0.578125 C 9.734375 -0.390625 9.6875 -0.226562 9.59375 -0.09375 C 9.5 0.03125 9.363281 0.09375 9.1875 0.09375 C 7.894531 0.03125 6.632812 0 5.40625 0 C 4.320312 0 3.125 0.03125 1.8125 0.09375 Z M 9.125 -8.765625 C 9.851562 -8.765625 10.601562 -8.910156 11.375 -9.203125 C 12.15625 -9.492188 12.816406 -9.992188 13.359375 -10.703125 C 13.898438 -11.421875 14.171875 -12.363281 14.171875 -13.53125 C 14.171875 -15.3125 13.601562 -16.492188 12.46875 -17.078125 C 11.34375 -17.660156 10.148438 -17.953125 8.890625 -17.953125 C 8.359375 -17.953125 7.960938 -17.894531 7.703125 -17.78125 C 7.441406 -17.675781 7.253906 -17.460938 7.140625 -17.140625 C 7.035156 -16.816406 6.984375 -16.3125 6.984375 -15.625 L 6.984375 -9.09375 C 7.460938 -8.875 8.175781 -8.765625 9.125 -8.765625 Z M 9.125 -8.765625 "/></g></g></g><g fill="#000000" fill-opacity="1"><g transform="translate(698.107279, 48.61511)"><g><path d="M 3.421875 -15.40625 C 3.078125 -16.28125 2.742188 -16.882812 2.421875 -17.21875 C 2.097656 -17.5625 1.625 -17.796875 1 -17.921875 C 0.914062 -17.941406 0.789062 -17.96875 0.625 -18 C 0.46875 -18.03125 0.363281 -18.085938 0.3125 -18.171875 C 0.257812 -18.265625 0.234375 -18.410156 0.234375 -18.609375 C 0.234375 -18.859375 0.300781 -19.019531 0.4375 -19.09375 C 0.570312 -19.175781 0.78125 -19.21875 1.0625 -19.21875 C 2.570312 -19.21875 3.71875 -18.984375 4.5 -18.515625 C 5.289062 -18.054688 5.914062 -17.234375 6.375 -16.046875 L 9.828125 -4.984375 L 9.9375 -4.984375 L 13.625 -19.0625 L 15.203125 -19.0625 L 20.125 -4.984375 L 20.21875 -4.984375 L 23.625 -16.375 C 23.707031 -16.675781 23.75 -16.941406 23.75 -17.171875 C 23.75 -17.453125 23.644531 -17.632812 23.4375 -17.71875 C 23.238281 -17.8125 22.859375 -17.859375 22.296875 -17.859375 L 22.125 -17.859375 C 21.914062 -17.859375 21.769531 -17.894531 21.6875 -17.96875 C 21.613281 -18.039062 21.566406 -18.21875 21.546875 -18.5 C 21.546875 -18.675781 21.585938 -18.828125 21.671875 -18.953125 C 21.765625 -19.085938 21.894531 -19.15625 22.0625 -19.15625 C 23.375 -19.09375 24.472656 -19.0625 25.359375 -19.0625 C 25.734375 -19.0625 26.46875 -19.082031 27.5625 -19.125 L 28.1875 -19.15625 C 28.375 -19.15625 28.507812 -19.085938 28.59375 -18.953125 C 28.6875 -18.828125 28.734375 -18.675781 28.734375 -18.5 C 28.710938 -18.21875 28.660156 -18.039062 28.578125 -17.96875 C 28.503906 -17.894531 28.363281 -17.859375 28.15625 -17.859375 C 27.269531 -17.859375 26.582031 -17.710938 26.09375 -17.421875 C 25.601562 -17.128906 25.242188 -16.585938 25.015625 -15.796875 L 20.0625 0.296875 L 18.640625 0.296875 L 13.75 -14.109375 L 9.84375 0.296875 L 8.4375 0.296875 Z M 3.421875 -15.40625 "/></g></g><g transform="translate(726.328862, 48.61511)"><g><path d="M 1.8125 0.09375 C 1.65625 0.09375 1.53125 0.03125 1.4375 -0.09375 C 1.34375 -0.226562 1.296875 -0.390625 1.296875 -0.578125 C 1.316406 -0.878906 1.375 -1.054688 1.46875 -1.109375 C 1.570312 -1.171875 1.769531 -1.203125 2.0625 -1.203125 C 2.644531 -1.203125 3.078125 -1.304688 3.359375 -1.515625 C 3.640625 -1.734375 3.8125 -2 3.875 -2.3125 C 3.945312 -2.625 3.992188 -3.03125 4.015625 -3.53125 L 4.015625 -15.53125 C 3.992188 -16.03125 3.945312 -16.4375 3.875 -16.75 C 3.8125 -17.0625 3.640625 -17.320312 3.359375 -17.53125 C 3.078125 -17.75 2.644531 -17.859375 2.0625 -17.859375 L 1.875 -17.859375 C 1.675781 -17.859375 1.535156 -17.894531 1.453125 -17.96875 C 1.367188 -18.039062 1.316406 -18.21875 1.296875 -18.5 C 1.296875 -18.675781 1.34375 -18.828125 1.4375 -18.953125 C 1.53125 -19.085938 1.65625 -19.15625 1.8125 -19.15625 C 3.125 -19.09375 4.320312 -19.0625 5.40625 -19.0625 L 14.140625 -19.0625 C 14.660156 -19.0625 14.921875 -18.820312 14.921875 -18.34375 L 15.015625 -14.109375 C 15.015625 -13.929688 14.921875 -13.785156 14.734375 -13.671875 C 14.554688 -13.566406 14.378906 -13.515625 14.203125 -13.515625 C 13.960938 -13.515625 13.742188 -13.554688 13.546875 -13.640625 C 13.359375 -13.734375 13.253906 -13.867188 13.234375 -14.046875 C 13.097656 -15.035156 12.929688 -15.785156 12.734375 -16.296875 C 12.546875 -16.816406 12.265625 -17.203125 11.890625 -17.453125 C 11.515625 -17.703125 10.984375 -17.835938 10.296875 -17.859375 L 7.015625 -17.859375 L 7.015625 -10 L 12.421875 -10 C 12.578125 -9.976562 12.695312 -9.898438 12.78125 -9.765625 C 12.863281 -9.640625 12.90625 -9.488281 12.90625 -9.3125 C 12.90625 -9.144531 12.863281 -9 12.78125 -8.875 C 12.695312 -8.757812 12.578125 -8.703125 12.421875 -8.703125 L 7.015625 -8.703125 L 7.015625 -3.53125 C 7.035156 -3.03125 7.078125 -2.625 7.140625 -2.3125 C 7.210938 -2 7.390625 -1.734375 7.671875 -1.515625 C 7.953125 -1.304688 8.382812 -1.203125 8.96875 -1.203125 L 9.15625 -1.203125 C 9.332031 -1.203125 9.46875 -1.164062 9.5625 -1.09375 C 9.65625 -1.03125 9.710938 -0.859375 9.734375 -0.578125 C 9.734375 -0.390625 9.6875 -0.226562 9.59375 -0.09375 C 9.5 0.03125 9.363281 0.09375 9.1875 0.09375 C 7.894531 0.03125 6.644531 0 5.4375 0 C 4.332031 0 3.125 0.03125 1.8125 0.09375 Z M 1.8125 0.09375 "/></g></g></g><g fill="#000000" fill-opacity="1"><g transform="translate(742.192168, 48.61511)"><g><path d="M 1.8125 0.09375 C 1.65625 0.09375 1.53125 0.03125 1.4375 -0.09375 C 1.34375 -0.226562 1.296875 -0.390625 1.296875 -0.578125 C 1.316406 -0.878906 1.375 -1.054688 1.46875 -1.109375 C 1.570312 -1.171875 1.769531 -1.203125 2.0625 -1.203125 C 2.644531 -1.203125 3.078125 -1.304688 3.359375 -1.515625 C 3.640625 -1.734375 3.8125 -2 3.875 -2.3125 C 3.945312 -2.625 3.992188 -3.03125 4.015625 -3.53125 L 4.015625 -15.53125 C 3.992188 -16.03125 3.945312 -16.4375 3.875 -16.75 C 3.8125 -17.0625 3.640625 -17.320312 3.359375 -17.53125 C 3.078125 -17.75 2.644531 -17.859375 2.0625 -17.859375 L 1.875 -17.859375 C 1.675781 -17.859375 1.535156 -17.894531 1.453125 -17.96875 C 1.367188 -18.039062 1.316406 -18.21875 1.296875 -18.5 C 1.296875 -18.675781 1.34375 -18.828125 1.4375 -18.953125 C 1.53125 -19.085938 1.65625 -19.15625 1.8125 -19.15625 C 3.144531 -19.09375 4.34375 -19.0625 5.40625 -19.0625 L 14.890625 -19.0625 C 15.421875 -19.0625 15.6875 -18.820312 15.6875 -18.34375 L 15.78125 -14.109375 C 15.78125 -13.929688 15.6875 -13.785156 15.5 -13.671875 C 15.320312 -13.566406 15.140625 -13.515625 14.953125 -13.515625 C 14.710938 -13.515625 14.5 -13.554688 14.3125 -13.640625 C 14.132812 -13.734375 14.035156 -13.867188 14.015625 -14.046875 C 13.859375 -15.035156 13.679688 -15.785156 13.484375 -16.296875 C 13.296875 -16.816406 13.015625 -17.203125 12.640625 -17.453125 C 12.273438 -17.703125 11.75 -17.835938 11.0625 -17.859375 L 7.015625 -17.859375 L 7.015625 -10.1875 L 12.484375 -10.1875 C 12.617188 -10.164062 12.726562 -10.085938 12.8125 -9.953125 C 12.894531 -9.828125 12.9375 -9.671875 12.9375 -9.484375 C 12.9375 -9.328125 12.894531 -9.1875 12.8125 -9.0625 C 12.726562 -8.945312 12.617188 -8.890625 12.484375 -8.890625 L 7.015625 -8.890625 L 7.015625 -3.171875 C 7.054688 -2.742188 7.101562 -2.40625 7.15625 -2.15625 C 7.21875 -1.90625 7.398438 -1.675781 7.703125 -1.46875 C 8.003906 -1.269531 8.476562 -1.179688 9.125 -1.203125 L 11.90625 -1.203125 C 12.613281 -1.222656 13.144531 -1.335938 13.5 -1.546875 C 13.863281 -1.765625 14.148438 -2.09375 14.359375 -2.53125 C 14.578125 -2.976562 14.835938 -3.707031 15.140625 -4.71875 C 15.273438 -5.082031 15.617188 -5.222656 16.171875 -5.140625 C 16.367188 -5.097656 16.539062 -5.015625 16.6875 -4.890625 C 16.84375 -4.773438 16.910156 -4.625 16.890625 -4.4375 L 16.28125 -0.640625 C 16.226562 -0.367188 16.140625 -0.191406 16.015625 -0.109375 C 15.890625 -0.0351562 15.6875 0 15.40625 0 L 5.4375 0 C 4.351562 0 3.144531 0.03125 1.8125 0.09375 Z M 1.8125 0.09375 "/></g></g></g><g fill="#5b0e9f" fill-opacity="1"><g transform="translate(1031.267802, 46.3322)"><g><path d="M 3.6875 5.796875 C 2.71875 5.128906 2.234375 3.976562 2.234375 2.34375 C 2.234375 1.601562 2.269531 0.46875 2.34375 -1.0625 C 2.414062 -2.550781 2.453125 -3.582031 2.453125 -4.15625 C 2.453125 -4.53125 2.414062 -4.835938 2.34375 -5.078125 C 2.300781 -5.203125 2.171875 -5.347656 1.953125 -5.515625 C 1.710938 -5.679688 1.296875 -5.796875 0.703125 -5.859375 L 0.640625 -5.859375 C 0.328125 -5.929688 0.09375 -6.125 -0.0625 -6.4375 C -0.113281 -6.53125 -0.148438 -6.632812 -0.171875 -6.75 C -0.203125 -6.863281 -0.21875 -6.972656 -0.21875 -7.078125 C -0.21875 -7.265625 -0.171875 -7.472656 -0.078125 -7.703125 C 0.0859375 -8.035156 0.328125 -8.238281 0.640625 -8.3125 L 0.71875 -8.3125 C 1.332031 -8.363281 1.765625 -8.472656 2.015625 -8.640625 C 2.066406 -8.679688 2.109375 -8.726562 2.140625 -8.78125 C 2.347656 -9.082031 2.453125 -9.492188 2.453125 -10.015625 C 2.453125 -10.648438 2.414062 -11.707031 2.34375 -13.1875 C 2.269531 -14.71875 2.234375 -15.789062 2.234375 -16.40625 C 2.234375 -18.070312 2.695312 -19.25 3.625 -19.9375 C 4.476562 -20.570312 5.546875 -20.914062 6.828125 -20.96875 L 7 -20.96875 C 7.300781 -20.96875 7.550781 -20.882812 7.75 -20.71875 C 7.8125 -20.664062 7.863281 -20.601562 7.90625 -20.53125 C 7.957031 -20.46875 7.988281 -20.410156 8 -20.359375 C 8.019531 -20.316406 8.039062 -20.265625 8.0625 -20.203125 C 8.082031 -20.140625 8.09375 -20.085938 8.09375 -20.046875 C 8.09375 -20.015625 8.097656 -19.960938 8.109375 -19.890625 L 8.109375 -19.828125 C 8.109375 -19.710938 8.09375 -19.597656 8.0625 -19.484375 C 8.039062 -19.378906 8 -19.28125 7.9375 -19.1875 C 7.875 -19.09375 7.800781 -19.007812 7.71875 -18.9375 C 7.644531 -18.863281 7.554688 -18.800781 7.453125 -18.75 C 7.359375 -18.707031 7.253906 -18.664062 7.140625 -18.625 C 6.929688 -18.613281 6.753906 -18.582031 6.609375 -18.53125 C 6.460938 -18.488281 6.335938 -18.4375 6.234375 -18.375 C 6.128906 -18.320312 6.046875 -18.265625 5.984375 -18.203125 C 5.921875 -18.148438 5.878906 -18.097656 5.859375 -18.046875 C 5.628906 -17.734375 5.515625 -17.273438 5.515625 -16.671875 C 5.515625 -16.585938 5.515625 -16.492188 5.515625 -16.390625 C 5.515625 -16.285156 5.519531 -16.179688 5.53125 -16.078125 C 5.539062 -15.972656 5.546875 -15.859375 5.546875 -15.734375 C 5.546875 -15.617188 5.550781 -15.5 5.5625 -15.375 C 5.570312 -15.257812 5.585938 -15.132812 5.609375 -15 C 5.628906 -14.664062 5.644531 -14.382812 5.65625 -14.15625 C 5.675781 -13.925781 5.695312 -13.753906 5.71875 -13.640625 C 5.84375 -12.316406 5.90625 -11.253906 5.90625 -10.453125 C 5.90625 -10.210938 5.890625 -9.976562 5.859375 -9.75 C 5.835938 -9.53125 5.796875 -9.3125 5.734375 -9.09375 C 5.679688 -8.882812 5.609375 -8.679688 5.515625 -8.484375 C 5.429688 -8.296875 5.332031 -8.109375 5.21875 -7.921875 C 5.101562 -7.753906 4.972656 -7.59375 4.828125 -7.4375 C 4.691406 -7.289062 4.550781 -7.171875 4.40625 -7.078125 C 4.71875 -6.859375 4.976562 -6.59375 5.1875 -6.28125 C 5.664062 -5.570312 5.90625 -4.710938 5.90625 -3.703125 C 5.90625 -3.171875 5.878906 -2.550781 5.828125 -1.84375 C 5.773438 -1.15625 5.738281 -0.695312 5.71875 -0.46875 C 5.582031 0.75 5.515625 1.710938 5.515625 2.421875 C 5.515625 3.054688 5.609375 3.539062 5.796875 3.875 C 5.953125 4.113281 6.332031 4.300781 6.9375 4.4375 C 7.019531 4.4375 7.109375 4.445312 7.203125 4.46875 C 7.304688 4.5 7.414062 4.535156 7.53125 4.578125 C 7.644531 4.628906 7.738281 4.703125 7.8125 4.796875 C 8.007812 5.003906 8.109375 5.265625 8.109375 5.578125 L 8.109375 5.640625 C 8.109375 5.785156 8.082031 5.925781 8.03125 6.0625 C 7.976562 6.207031 7.894531 6.332031 7.78125 6.4375 C 7.707031 6.507812 7.625 6.570312 7.53125 6.625 C 7.4375 6.6875 7.335938 6.726562 7.234375 6.75 C 7.128906 6.769531 7.03125 6.78125 6.9375 6.78125 C 5.644531 6.738281 4.5625 6.410156 3.6875 5.796875 Z M 3.6875 5.796875 "/></g></g></g><g fill="#000000" fill-opacity="1"><g transform="translate(1039.250195, 46.3322)"><g/></g></g><g fill="#000000" fill-opacity="1"><g transform="translate(1045.469921, 46.3322)"><g><path d="M 0.96875 5.359375 C 0.707031 5.359375 0.535156 5.195312 0.453125 4.875 C 0.429688 4.820312 0.421875 4.738281 0.421875 4.625 C 0.421875 4.40625 0.519531 4.257812 0.71875 4.1875 C 1.65625 3.789062 2.34375 3.226562 2.78125 2.5 C 3.226562 1.78125 3.515625 0.890625 3.640625 -0.171875 C 3.773438 -1.242188 3.84375 -2.691406 3.84375 -4.515625 L 3.84375 -14.328125 C 3.832031 -14.796875 3.789062 -15.171875 3.71875 -15.453125 C 3.65625 -15.742188 3.492188 -15.988281 3.234375 -16.1875 C 2.972656 -16.382812 2.570312 -16.484375 2.03125 -16.484375 L 1.875 -16.484375 C 1.6875 -16.484375 1.550781 -16.515625 1.46875 -16.578125 C 1.382812 -16.640625 1.332031 -16.800781 1.3125 -17.0625 C 1.3125 -17.226562 1.359375 -17.375 1.453125 -17.5 C 1.546875 -17.625 1.664062 -17.6875 1.8125 -17.6875 C 3 -17.625 4.101562 -17.59375 5.125 -17.59375 C 6.257812 -17.59375 7.425781 -17.625 8.625 -17.6875 C 8.789062 -17.6875 8.914062 -17.625 9 -17.5 C 9.082031 -17.375 9.125 -17.226562 9.125 -17.0625 C 9.101562 -16.789062 9.039062 -16.625 8.9375 -16.5625 C 8.832031 -16.507812 8.648438 -16.484375 8.390625 -16.484375 C 7.859375 -16.484375 7.460938 -16.382812 7.203125 -16.1875 C 6.941406 -15.988281 6.773438 -15.742188 6.703125 -15.453125 C 6.640625 -15.171875 6.597656 -14.796875 6.578125 -14.328125 L 6.578125 -3.5625 C 6.578125 -1.164062 6.15625 0.796875 5.3125 2.328125 C 4.46875 3.859375 3.0625 4.867188 1.09375 5.359375 Z M 0.96875 5.359375 "/></g></g></g><g fill="#000000" fill-opacity="1"><g transform="translate(1055.538619, 46.3322)"><g><path d="M 4.6875 0.328125 C 3.570312 0.328125 2.671875 0.015625 1.984375 -0.609375 C 1.296875 -1.242188 0.953125 -2.035156 0.953125 -2.984375 C 0.953125 -4.148438 1.34375 -5.023438 2.125 -5.609375 C 2.90625 -6.203125 3.832031 -6.585938 4.90625 -6.765625 C 5.988281 -6.941406 7.382812 -7.078125 9.09375 -7.171875 L 9.09375 -9.375 C 9.09375 -10.28125 8.863281 -10.96875 8.40625 -11.4375 C 7.945312 -11.914062 7.21875 -12.15625 6.21875 -12.15625 C 5.644531 -12.15625 5.144531 -11.976562 4.71875 -11.625 C 4.289062 -11.269531 4.078125 -10.796875 4.078125 -10.203125 C 4.078125 -9.910156 4.144531 -9.664062 4.28125 -9.46875 C 4.414062 -9.269531 4.5625 -9.101562 4.71875 -8.96875 C 4.882812 -8.84375 4.96875 -8.769531 4.96875 -8.75 C 4.96875 -8.644531 4.847656 -8.503906 4.609375 -8.328125 C 4.378906 -8.148438 4.097656 -8.0625 3.765625 -8.0625 C 3.203125 -8.0625 2.757812 -8.265625 2.4375 -8.671875 C 2.113281 -9.078125 1.953125 -9.5625 1.953125 -10.125 C 1.953125 -11.09375 2.382812 -11.804688 3.25 -12.265625 C 4.113281 -12.734375 5.160156 -12.96875 6.390625 -12.96875 C 7.910156 -12.96875 9.148438 -12.675781 10.109375 -12.09375 C 11.066406 -11.519531 11.546875 -10.453125 11.546875 -8.890625 L 11.546875 -2.40625 C 11.566406 -2.007812 11.6875 -1.632812 11.90625 -1.28125 C 12.132812 -0.925781 12.5 -0.75 13 -0.75 C 13.144531 -0.75 13.25 -0.71875 13.3125 -0.65625 C 13.382812 -0.601562 13.421875 -0.488281 13.421875 -0.3125 C 13.421875 -0.0820312 13.25 0.078125 12.90625 0.171875 C 12.5625 0.273438 12.21875 0.328125 11.875 0.328125 C 11.175781 0.328125 10.554688 0.125 10.015625 -0.28125 C 9.472656 -0.6875 9.164062 -1.234375 9.09375 -1.921875 C 8.695312 -1.203125 8.09375 -0.644531 7.28125 -0.25 C 6.476562 0.132812 5.613281 0.328125 4.6875 0.328125 Z M 5.578125 -1.171875 C 6.210938 -1.171875 6.796875 -1.328125 7.328125 -1.640625 C 7.867188 -1.960938 8.296875 -2.394531 8.609375 -2.9375 C 8.929688 -3.488281 9.09375 -4.097656 9.09375 -4.765625 L 9.09375 -6.359375 C 7.132812 -6.210938 5.753906 -5.894531 4.953125 -5.40625 C 4.160156 -4.925781 3.765625 -4.144531 3.765625 -3.0625 C 3.765625 -1.800781 4.367188 -1.171875 5.578125 -1.171875 Z M 5.578125 -1.171875 "/></g></g></g><g fill="#000000" fill-opacity="1"><g transform="translate(1069.512078, 46.3322)"><g><path d="M 7 0.28125 C 6.519531 -0.757812 5.84375 -2.425781 4.96875 -4.71875 C 4.894531 -4.90625 4.640625 -5.570312 4.203125 -6.71875 C 3.765625 -7.875 3.347656 -8.84375 2.953125 -9.625 C 2.640625 -10.34375 2.34375 -10.835938 2.0625 -11.109375 C 1.78125 -11.378906 1.375 -11.550781 0.84375 -11.625 C 0.78125 -11.644531 0.675781 -11.664062 0.53125 -11.6875 C 0.382812 -11.707031 0.289062 -11.753906 0.25 -11.828125 C 0.207031 -11.898438 0.1875 -12.03125 0.1875 -12.21875 C 0.1875 -12.4375 0.25 -12.570312 0.375 -12.625 C 0.5 -12.6875 0.648438 -12.722656 0.828125 -12.734375 C 1.003906 -12.742188 1.117188 -12.75 1.171875 -12.75 C 2.304688 -12.800781 3.195312 -12.632812 3.84375 -12.25 C 4.5 -11.875 5.039062 -11.210938 5.46875 -10.265625 C 5.488281 -10.222656 5.847656 -9.332031 6.546875 -7.59375 C 7.410156 -5.414062 8.023438 -3.9375 8.390625 -3.15625 L 8.484375 -3.15625 L 11.234375 -10.453125 C 11.328125 -10.773438 11.375 -11 11.375 -11.125 C 11.375 -11.332031 11.28125 -11.472656 11.09375 -11.546875 C 10.914062 -11.617188 10.613281 -11.65625 10.1875 -11.65625 L 10.015625 -11.65625 C 9.867188 -11.65625 9.757812 -11.679688 9.6875 -11.734375 C 9.625 -11.796875 9.582031 -11.9375 9.5625 -12.15625 C 9.5625 -12.289062 9.59375 -12.414062 9.65625 -12.53125 C 9.726562 -12.65625 9.828125 -12.71875 9.953125 -12.71875 C 11.015625 -12.664062 11.914062 -12.640625 12.65625 -12.640625 C 12.957031 -12.640625 13.535156 -12.65625 14.390625 -12.6875 L 14.984375 -12.71875 C 15.109375 -12.71875 15.207031 -12.65625 15.28125 -12.53125 C 15.351562 -12.414062 15.390625 -12.289062 15.390625 -12.15625 C 15.378906 -11.9375 15.332031 -11.796875 15.25 -11.734375 C 15.175781 -11.679688 15.066406 -11.65625 14.921875 -11.65625 C 14.234375 -11.65625 13.703125 -11.539062 13.328125 -11.3125 C 12.960938 -11.09375 12.648438 -10.660156 12.390625 -10.015625 C 11.953125 -8.929688 11.148438 -6.945312 9.984375 -4.0625 C 8.816406 -1.1875 8.210938 0.257812 8.171875 0.28125 Z M 7 0.28125 "/></g></g></g><g fill="#000000" fill-opacity="1"><g transform="translate(1084.880095, 46.3322)"><g><path d="M 4.6875 0.328125 C 3.570312 0.328125 2.671875 0.015625 1.984375 -0.609375 C 1.296875 -1.242188 0.953125 -2.035156 0.953125 -2.984375 C 0.953125 -4.148438 1.34375 -5.023438 2.125 -5.609375 C 2.90625 -6.203125 3.832031 -6.585938 4.90625 -6.765625 C 5.988281 -6.941406 7.382812 -7.078125 9.09375 -7.171875 L 9.09375 -9.375 C 9.09375 -10.28125 8.863281 -10.96875 8.40625 -11.4375 C 7.945312 -11.914062 7.21875 -12.15625 6.21875 -12.15625 C 5.644531 -12.15625 5.144531 -11.976562 4.71875 -11.625 C 4.289062 -11.269531 4.078125 -10.796875 4.078125 -10.203125 C 4.078125 -9.910156 4.144531 -9.664062 4.28125 -9.46875 C 4.414062 -9.269531 4.5625 -9.101562 4.71875 -8.96875 C 4.882812 -8.84375 4.96875 -8.769531 4.96875 -8.75 C 4.96875 -8.644531 4.847656 -8.503906 4.609375 -8.328125 C 4.378906 -8.148438 4.097656 -8.0625 3.765625 -8.0625 C 3.203125 -8.0625 2.757812 -8.265625 2.4375 -8.671875 C 2.113281 -9.078125 1.953125 -9.5625 1.953125 -10.125 C 1.953125 -11.09375 2.382812 -11.804688 3.25 -12.265625 C 4.113281 -12.734375 5.160156 -12.96875 6.390625 -12.96875 C 7.910156 -12.96875 9.148438 -12.675781 10.109375 -12.09375 C 11.066406 -11.519531 11.546875 -10.453125 11.546875 -8.890625 L 11.546875 -2.40625 C 11.566406 -2.007812 11.6875 -1.632812 11.90625 -1.28125 C 12.132812 -0.925781 12.5 -0.75 13 -0.75 C 13.144531 -0.75 13.25 -0.71875 13.3125 -0.65625 C 13.382812 -0.601562 13.421875 -0.488281 13.421875 -0.3125 C 13.421875 -0.0820312 13.25 0.078125 12.90625 0.171875 C 12.5625 0.273438 12.21875 0.328125 11.875 0.328125 C 11.175781 0.328125 10.554688 0.125 10.015625 -0.28125 C 9.472656 -0.6875 9.164062 -1.234375 9.09375 -1.921875 C 8.695312 -1.203125 8.09375 -0.644531 7.28125 -0.25 C 6.476562 0.132812 5.613281 0.328125 4.6875 0.328125 Z M 5.578125 -1.171875 C 6.210938 -1.171875 6.796875 -1.328125 7.328125 -1.640625 C 7.867188 -1.960938 8.296875 -2.394531 8.609375 -2.9375 C 8.929688 -3.488281 9.09375 -4.097656 9.09375 -4.765625 L 9.09375 -6.359375 C 7.132812 -6.210938 5.753906 -5.894531 4.953125 -5.40625 C 4.160156 -4.925781 3.765625 -4.144531 3.765625 -3.0625 C 3.765625 -1.800781 4.367188 -1.171875 5.578125 -1.171875 Z M 5.578125 -1.171875 "/></g></g></g><g fill="#000000" fill-opacity="1"><g transform="translate(1098.853554, 46.3322)"><g><path d="M 7.390625 0.5625 C 5.441406 0.5625 3.945312 0.222656 2.90625 -0.453125 C 1.875 -1.140625 1.359375 -2.140625 1.359375 -3.453125 C 1.359375 -4.128906 1.585938 -4.679688 2.046875 -5.109375 C 2.503906 -5.546875 3.097656 -5.765625 3.828125 -5.765625 C 4.253906 -5.753906 4.578125 -5.648438 4.796875 -5.453125 C 5.015625 -5.253906 5.125 -5.070312 5.125 -4.90625 C 5.125 -4.882812 5.03125 -4.816406 4.84375 -4.703125 C 4.664062 -4.597656 4.5 -4.429688 4.34375 -4.203125 C 4.195312 -3.984375 4.125 -3.679688 4.125 -3.296875 C 4.125 -2.421875 4.390625 -1.742188 4.921875 -1.265625 C 5.453125 -0.796875 6.273438 -0.5625 7.390625 -0.5625 C 8.148438 -0.5625 8.816406 -0.707031 9.390625 -1 C 9.972656 -1.300781 10.414062 -1.695312 10.71875 -2.1875 C 11.03125 -2.675781 11.1875 -3.191406 11.1875 -3.734375 C 11.1875 -4.398438 10.992188 -4.972656 10.609375 -5.453125 C 10.234375 -5.941406 9.765625 -6.347656 9.203125 -6.671875 C 8.648438 -7.003906 7.890625 -7.382812 6.921875 -7.8125 C 5.804688 -8.3125 4.898438 -8.765625 4.203125 -9.171875 C 3.515625 -9.585938 2.929688 -10.132812 2.453125 -10.8125 C 1.972656 -11.488281 1.734375 -12.328125 1.734375 -13.328125 C 1.734375 -14.953125 2.285156 -16.160156 3.390625 -16.953125 C 4.492188 -17.753906 5.945312 -18.15625 7.75 -18.15625 C 9.164062 -18.15625 10.398438 -17.859375 11.453125 -17.265625 C 12.503906 -16.671875 13.03125 -15.796875 13.03125 -14.640625 C 13.03125 -13.972656 12.800781 -13.421875 12.34375 -12.984375 C 11.882812 -12.546875 11.296875 -12.328125 10.578125 -12.328125 C 10.140625 -12.347656 9.8125 -12.453125 9.59375 -12.640625 C 9.375 -12.835938 9.265625 -13.019531 9.265625 -13.1875 C 9.265625 -13.207031 9.390625 -13.273438 9.640625 -13.390625 C 9.890625 -13.503906 10.109375 -13.671875 10.296875 -13.890625 C 10.492188 -14.109375 10.59375 -14.414062 10.59375 -14.8125 C 10.59375 -15.5 10.328125 -16.035156 9.796875 -16.421875 C 9.273438 -16.816406 8.601562 -17.015625 7.78125 -17.015625 C 6.644531 -17.015625 5.785156 -16.75 5.203125 -16.21875 C 4.617188 -15.6875 4.328125 -15.03125 4.328125 -14.25 C 4.328125 -13.601562 4.503906 -13.0625 4.859375 -12.625 C 5.210938 -12.1875 5.773438 -11.753906 6.546875 -11.328125 C 7.179688 -10.992188 7.875 -10.65625 8.625 -10.3125 C 9.8125 -9.78125 10.753906 -9.289062 11.453125 -8.84375 C 12.148438 -8.394531 12.734375 -7.804688 13.203125 -7.078125 C 13.679688 -6.359375 13.921875 -5.457031 13.921875 -4.375 C 13.921875 -3.445312 13.625 -2.601562 13.03125 -1.84375 C 12.445312 -1.09375 11.65625 -0.503906 10.65625 -0.078125 C 9.664062 0.347656 8.578125 0.5625 7.390625 0.5625 Z M 7.390625 0.5625 "/></g></g></g><g fill="#000000" fill-opacity="1"><g transform="translate(1114.054224, 46.3322)"><g><path d="M 7.21875 0.328125 C 5.320312 0.328125 3.832031 -0.273438 2.75 -1.484375 C 1.675781 -2.691406 1.140625 -4.304688 1.140625 -6.328125 C 1.179688 -7.597656 1.492188 -8.726562 2.078125 -9.71875 C 2.660156 -10.71875 3.441406 -11.5 4.421875 -12.0625 C 5.410156 -12.625 6.503906 -12.925781 7.703125 -12.96875 C 8.890625 -12.96875 9.914062 -12.742188 10.78125 -12.296875 C 11.644531 -11.847656 12.078125 -11.101562 12.078125 -10.0625 C 12.078125 -9.488281 11.90625 -8.984375 11.5625 -8.546875 C 11.21875 -8.109375 10.757812 -7.890625 10.1875 -7.890625 C 9.832031 -7.890625 9.523438 -7.984375 9.265625 -8.171875 C 9.015625 -8.359375 8.890625 -8.515625 8.890625 -8.640625 C 8.890625 -8.660156 8.972656 -8.742188 9.140625 -8.890625 C 9.316406 -9.046875 9.472656 -9.226562 9.609375 -9.4375 C 9.742188 -9.65625 9.8125 -9.90625 9.8125 -10.1875 C 9.8125 -10.757812 9.601562 -11.191406 9.1875 -11.484375 C 8.769531 -11.785156 8.265625 -11.9375 7.671875 -11.9375 C 6.234375 -11.9375 5.257812 -11.410156 4.75 -10.359375 C 4.238281 -9.304688 3.984375 -7.992188 3.984375 -6.421875 C 3.984375 -4.859375 4.335938 -3.570312 5.046875 -2.5625 C 5.753906 -1.5625 6.691406 -1.0625 7.859375 -1.0625 C 8.660156 -1.0625 9.34375 -1.234375 9.90625 -1.578125 C 10.476562 -1.921875 11 -2.445312 11.46875 -3.15625 C 11.519531 -3.25 11.609375 -3.296875 11.734375 -3.296875 C 11.828125 -3.296875 11.929688 -3.265625 12.046875 -3.203125 C 12.140625 -3.171875 12.210938 -3.109375 12.265625 -3.015625 C 12.328125 -2.921875 12.359375 -2.828125 12.359375 -2.734375 C 12.359375 -2.679688 12.328125 -2.609375 12.265625 -2.515625 C 11.648438 -1.640625 10.890625 -0.945312 9.984375 -0.4375 C 9.078125 0.0703125 8.15625 0.328125 7.21875 0.328125 Z M 7.21875 0.328125 "/></g></g></g><g fill="#000000" fill-opacity="1"><g transform="translate(1127.302513, 46.3322)"><g><path d="M 1.359375 0.078125 C 1.234375 0.078125 1.128906 0.0234375 1.046875 -0.078125 C 0.960938 -0.191406 0.921875 -0.320312 0.921875 -0.46875 C 0.941406 -0.71875 1 -0.863281 1.09375 -0.90625 C 1.1875 -0.945312 1.351562 -0.96875 1.59375 -0.96875 C 2.070312 -0.96875 2.410156 -1.050781 2.609375 -1.21875 C 2.816406 -1.394531 2.9375 -1.59375 2.96875 -1.8125 C 3 -2.03125 3.015625 -2.382812 3.015625 -2.875 L 3.015625 -9.265625 C 3.015625 -9.742188 3 -10.09375 2.96875 -10.3125 C 2.9375 -10.539062 2.816406 -10.738281 2.609375 -10.90625 C 2.410156 -11.070312 2.070312 -11.15625 1.59375 -11.15625 C 1.363281 -11.15625 1.191406 -11.1875 1.078125 -11.25 C 0.972656 -11.3125 0.921875 -11.46875 0.921875 -11.71875 C 0.921875 -11.820312 0.957031 -11.925781 1.03125 -12.03125 C 1.101562 -12.132812 1.210938 -12.195312 1.359375 -12.21875 C 2.566406 -12.40625 3.5625 -12.644531 4.34375 -12.9375 C 4.664062 -13.03125 4.882812 -13.085938 5 -13.109375 L 5.078125 -13.109375 C 5.367188 -13.109375 5.515625 -12.929688 5.515625 -12.578125 L 5.515625 -10.84375 L 5.609375 -10.84375 C 6.253906 -11.5 6.910156 -12.015625 7.578125 -12.390625 C 8.253906 -12.773438 8.863281 -12.96875 9.40625 -12.96875 C 10.007812 -12.96875 10.492188 -12.738281 10.859375 -12.28125 C 11.222656 -11.832031 11.40625 -11.304688 11.40625 -10.703125 C 11.40625 -10.179688 11.242188 -9.71875 10.921875 -9.3125 C 10.609375 -8.90625 10.175781 -8.703125 9.625 -8.703125 C 9.363281 -8.703125 9.132812 -8.753906 8.9375 -8.859375 C 8.738281 -8.972656 8.632812 -9.066406 8.625 -9.140625 C 8.632812 -9.179688 8.722656 -9.300781 8.890625 -9.5 C 9.054688 -9.695312 9.140625 -9.925781 9.140625 -10.1875 C 9.140625 -10.519531 9.050781 -10.785156 8.875 -10.984375 C 8.707031 -11.191406 8.472656 -11.296875 8.171875 -11.296875 C 7.859375 -11.296875 7.457031 -11.140625 6.96875 -10.828125 C 6.488281 -10.523438 6.015625 -10.140625 5.546875 -9.671875 L 5.546875 -2.875 C 5.546875 -2.382812 5.5625 -2.03125 5.59375 -1.8125 C 5.632812 -1.59375 5.757812 -1.394531 5.96875 -1.21875 C 6.175781 -1.050781 6.519531 -0.96875 7 -0.96875 L 7.171875 -0.96875 C 7.316406 -0.96875 7.425781 -0.941406 7.5 -0.890625 C 7.570312 -0.835938 7.617188 -0.695312 7.640625 -0.46875 C 7.640625 -0.320312 7.601562 -0.191406 7.53125 -0.078125 C 7.457031 0.0234375 7.347656 0.078125 7.203125 0.078125 C 6.117188 0.0234375 5.140625 0 4.265625 0 C 3.429688 0 2.460938 0.0234375 1.359375 0.078125 Z M 1.359375 0.078125 "/></g></g></g><g fill="#000000" fill-opacity="1"><g transform="translate(1139.156245, 46.3322)"><g><path d="M 1.359375 0.078125 C 1.234375 0.078125 1.128906 0.0234375 1.046875 -0.078125 C 0.960938 -0.191406 0.921875 -0.320312 0.921875 -0.46875 C 0.941406 -0.71875 1 -0.863281 1.09375 -0.90625 C 1.1875 -0.945312 1.351562 -0.96875 1.59375 -0.96875 C 2.070312 -0.96875 2.410156 -1.050781 2.609375 -1.21875 C 2.816406 -1.394531 2.9375 -1.59375 2.96875 -1.8125 C 3 -2.03125 3.015625 -2.382812 3.015625 -2.875 L 3.015625 -9.265625 C 3.015625 -9.742188 3 -10.09375 2.96875 -10.3125 C 2.9375 -10.539062 2.816406 -10.738281 2.609375 -10.90625 C 2.410156 -11.070312 2.070312 -11.15625 1.59375 -11.15625 C 1.363281 -11.15625 1.191406 -11.1875 1.078125 -11.25 C 0.972656 -11.3125 0.921875 -11.46875 0.921875 -11.71875 C 0.921875 -11.820312 0.957031 -11.925781 1.03125 -12.03125 C 1.101562 -12.132812 1.210938 -12.195312 1.359375 -12.21875 C 2.535156 -12.382812 3.539062 -12.625 4.375 -12.9375 C 4.632812 -13.03125 4.847656 -13.085938 5.015625 -13.109375 L 5.109375 -13.109375 C 5.398438 -13.109375 5.546875 -12.929688 5.546875 -12.578125 L 5.546875 -2.875 C 5.546875 -2.382812 5.5625 -2.03125 5.59375 -1.8125 C 5.632812 -1.59375 5.757812 -1.394531 5.96875 -1.21875 C 6.175781 -1.050781 6.519531 -0.96875 7 -0.96875 L 7.171875 -0.96875 C 7.316406 -0.96875 7.425781 -0.941406 7.5 -0.890625 C 7.570312 -0.835938 7.617188 -0.695312 7.640625 -0.46875 C 7.640625 -0.320312 7.601562 -0.191406 7.53125 -0.078125 C 7.457031 0.0234375 7.347656 0.078125 7.203125 0.078125 C 6.117188 0.0234375 5.140625 0 4.265625 0 C 3.429688 0 2.460938 0.0234375 1.359375 0.078125 Z M 4.125 -16.203125 C 3.601562 -16.203125 3.164062 -16.363281 2.8125 -16.6875 C 2.457031 -17.019531 2.28125 -17.425781 2.28125 -17.90625 C 2.28125 -18.332031 2.492188 -18.710938 2.921875 -19.046875 C 3.347656 -19.378906 3.832031 -19.546875 4.375 -19.546875 C 4.84375 -19.546875 5.222656 -19.382812 5.515625 -19.0625 C 5.816406 -18.738281 5.96875 -18.328125 5.96875 -17.828125 C 5.96875 -17.378906 5.789062 -16.992188 5.4375 -16.671875 C 5.082031 -16.359375 4.644531 -16.203125 4.125 -16.203125 Z M 4.125 -16.203125 "/></g></g></g><g fill="#000000" fill-opacity="1"><g transform="translate(1147.41202, 46.3322)"><g><path d="M 1.09375 5.796875 C 0.957031 5.796875 0.847656 5.738281 0.765625 5.625 C 0.679688 5.519531 0.640625 5.394531 0.640625 5.25 C 0.660156 5 0.710938 4.847656 0.796875 4.796875 C 0.878906 4.753906 1.039062 4.734375 1.28125 4.734375 C 1.75 4.734375 2.082031 4.648438 2.28125 4.484375 C 2.488281 4.316406 2.613281 4.113281 2.65625 3.875 C 2.707031 3.632812 2.734375 3.289062 2.734375 2.84375 L 2.734375 -9.265625 C 2.734375 -9.742188 2.71875 -10.09375 2.6875 -10.3125 C 2.664062 -10.539062 2.550781 -10.738281 2.34375 -10.90625 C 2.132812 -11.070312 1.789062 -11.15625 1.3125 -11.15625 C 1.082031 -11.15625 0.910156 -11.1875 0.796875 -11.25 C 0.691406 -11.3125 0.640625 -11.46875 0.640625 -11.71875 C 0.640625 -11.820312 0.675781 -11.925781 0.75 -12.03125 C 0.820312 -12.132812 0.9375 -12.195312 1.09375 -12.21875 C 2.300781 -12.40625 3.296875 -12.644531 4.078125 -12.9375 C 4.390625 -13.03125 4.601562 -13.085938 4.71875 -13.109375 L 4.796875 -13.109375 C 5.097656 -13.109375 5.25 -12.929688 5.25 -12.578125 L 5.25 -11.234375 L 5.328125 -11.234375 C 5.867188 -11.742188 6.5 -12.160156 7.21875 -12.484375 C 7.945312 -12.804688 8.632812 -12.96875 9.28125 -12.96875 C 10.40625 -12.96875 11.40625 -12.6875 12.28125 -12.125 C 13.164062 -11.570312 13.859375 -10.785156 14.359375 -9.765625 C 14.859375 -8.753906 15.109375 -7.609375 15.109375 -6.328125 C 15.109375 -5.023438 14.8125 -3.867188 14.21875 -2.859375 C 13.625 -1.847656 12.832031 -1.0625 11.84375 -0.5 C 10.863281 0.0507812 9.828125 0.328125 8.734375 0.328125 C 7.972656 0.328125 7.332031 0.25 6.8125 0.09375 C 6.289062 -0.0625 5.816406 -0.269531 5.390625 -0.53125 L 5.265625 -0.53125 L 5.265625 2.84375 C 5.265625 3.289062 5.285156 3.632812 5.328125 3.875 C 5.378906 4.113281 5.507812 4.316406 5.71875 4.484375 C 5.925781 4.648438 6.257812 4.734375 6.71875 4.734375 L 6.890625 4.734375 C 7.035156 4.734375 7.144531 4.757812 7.21875 4.8125 C 7.289062 4.875 7.335938 5.019531 7.359375 5.25 C 7.359375 5.394531 7.320312 5.519531 7.25 5.625 C 7.175781 5.738281 7.066406 5.796875 6.921875 5.796875 C 5.835938 5.742188 4.859375 5.71875 3.984375 5.71875 C 3.148438 5.71875 2.1875 5.742188 1.09375 5.796875 Z M 8.5 -0.609375 C 9.800781 -0.609375 10.753906 -1.1875 11.359375 -2.34375 C 11.960938 -3.5 12.265625 -4.800781 12.265625 -6.25 C 12.265625 -7.695312 11.929688 -8.945312 11.265625 -10 C 10.597656 -11.050781 9.601562 -11.578125 8.28125 -11.578125 C 7.632812 -11.578125 7.082031 -11.453125 6.625 -11.203125 C 6.164062 -10.953125 5.710938 -10.59375 5.265625 -10.125 L 5.265625 -2.65625 C 5.492188 -2.09375 5.890625 -1.609375 6.453125 -1.203125 C 7.023438 -0.804688 7.707031 -0.609375 8.5 -0.609375 Z M 8.5 -0.609375 "/></g></g></g><g fill="#000000" fill-opacity="1"><g transform="translate(1163.700451, 46.3322)"><g><path d="M 6.03125 0.46875 C 5.113281 0.46875 4.328125 0.132812 3.671875 -0.53125 C 3.023438 -1.195312 2.703125 -2.15625 2.703125 -3.40625 L 2.703125 -11.609375 L 1.09375 -11.546875 C 0.976562 -11.546875 0.882812 -11.597656 0.8125 -11.703125 C 0.738281 -11.804688 0.703125 -11.921875 0.703125 -12.046875 C 0.703125 -12.210938 0.734375 -12.351562 0.796875 -12.46875 C 0.859375 -12.59375 0.957031 -12.664062 1.09375 -12.6875 C 1.738281 -12.820312 2.242188 -13.03125 2.609375 -13.3125 C 2.972656 -13.601562 3.238281 -13.921875 3.40625 -14.265625 C 3.570312 -14.609375 3.773438 -15.132812 4.015625 -15.84375 C 4.109375 -16.082031 4.3125 -16.203125 4.625 -16.203125 C 4.757812 -16.203125 4.890625 -16.171875 5.015625 -16.109375 C 5.148438 -16.046875 5.21875 -15.945312 5.21875 -15.8125 L 5.015625 -12.640625 L 8.28125 -12.828125 L 8.34375 -12.828125 C 8.582031 -12.828125 8.703125 -12.648438 8.703125 -12.296875 C 8.703125 -12.097656 8.664062 -11.910156 8.59375 -11.734375 C 8.53125 -11.554688 8.457031 -11.46875 8.375 -11.46875 L 5.25 -11.546875 L 5.25 -3.0625 C 5.25 -2.445312 5.375 -1.9375 5.625 -1.53125 C 5.875 -1.125 6.285156 -0.921875 6.859375 -0.921875 C 7.429688 -0.921875 7.941406 -1.023438 8.390625 -1.234375 C 8.628906 -1.316406 8.78125 -1.359375 8.84375 -1.359375 C 8.96875 -1.359375 9.066406 -1.304688 9.140625 -1.203125 C 9.222656 -1.109375 9.300781 -0.976562 9.375 -0.8125 C 9.394531 -0.769531 9.40625 -0.722656 9.40625 -0.671875 C 9.40625 -0.597656 9.347656 -0.515625 9.234375 -0.421875 C 8.691406 -0.0664062 8.179688 0.164062 7.703125 0.28125 C 7.234375 0.40625 6.675781 0.46875 6.03125 0.46875 Z M 6.03125 0.46875 "/></g></g></g><g fill="#000000" fill-opacity="1"><g transform="translate(1174.271198, 46.3322)"><g/></g></g><g fill="#5b0e9f" fill-opacity="1"><g transform="translate(1180.492804, 46.3322)"><g><path d="M 0.109375 6.359375 C 0.078125 6.304688 0.0390625 6.238281 0 6.15625 C -0.03125 6.082031 -0.0625 6.007812 -0.09375 5.9375 C -0.125 5.863281 -0.140625 5.789062 -0.140625 5.71875 C -0.140625 5.644531 -0.140625 5.570312 -0.140625 5.5 C -0.117188 5.425781 -0.101562 5.359375 -0.09375 5.296875 C -0.0820312 5.242188 -0.0546875 5.179688 -0.015625 5.109375 C 0.015625 5.035156 0.0507812 4.960938 0.09375 4.890625 C 0.144531 4.828125 0.207031 4.769531 0.28125 4.71875 C 0.425781 4.601562 0.59375 4.523438 0.78125 4.484375 C 0.851562 4.472656 0.9375 4.457031 1.03125 4.4375 C 1.644531 4.300781 2.023438 4.113281 2.171875 3.875 C 2.359375 3.539062 2.453125 3.054688 2.453125 2.421875 C 2.453125 1.710938 2.390625 0.75 2.265625 -0.46875 C 2.242188 -0.695312 2.207031 -1.15625 2.15625 -1.84375 C 2.09375 -2.550781 2.0625 -3.171875 2.0625 -3.703125 C 2.0625 -4.710938 2.304688 -5.570312 2.796875 -6.28125 C 2.816406 -6.3125 2.835938 -6.34375 2.859375 -6.375 C 2.890625 -6.40625 2.914062 -6.4375 2.9375 -6.46875 C 2.96875 -6.507812 3 -6.546875 3.03125 -6.578125 C 3.0625 -6.617188 3.085938 -6.648438 3.109375 -6.671875 C 3.140625 -6.703125 3.164062 -6.734375 3.1875 -6.765625 C 3.21875 -6.796875 3.25 -6.820312 3.28125 -6.84375 C 3.320312 -6.875 3.359375 -6.898438 3.390625 -6.921875 C 3.421875 -6.953125 3.445312 -6.984375 3.46875 -7.015625 C 3.5 -7.046875 3.535156 -7.066406 3.578125 -7.078125 C 3.242188 -7.304688 2.972656 -7.585938 2.765625 -7.921875 C 2.523438 -8.273438 2.347656 -8.664062 2.234375 -9.09375 C 2.117188 -9.519531 2.0625 -9.972656 2.0625 -10.453125 C 2.0625 -10.941406 2.09375 -11.539062 2.15625 -12.25 C 2.207031 -12.914062 2.242188 -13.378906 2.265625 -13.640625 C 2.296875 -14.066406 2.332031 -14.460938 2.375 -14.828125 C 2.414062 -15.191406 2.4375 -15.523438 2.4375 -15.828125 C 2.445312 -16.128906 2.453125 -16.410156 2.453125 -16.671875 C 2.453125 -16.878906 2.4375 -17.070312 2.40625 -17.25 C 2.382812 -17.425781 2.347656 -17.578125 2.296875 -17.703125 C 2.253906 -17.835938 2.195312 -17.953125 2.125 -18.046875 C 1.957031 -18.328125 1.53125 -18.519531 0.84375 -18.625 C 0.34375 -18.738281 0.0234375 -19.046875 -0.109375 -19.546875 C -0.128906 -19.640625 -0.140625 -19.734375 -0.140625 -19.828125 L -0.140625 -19.890625 C -0.0976562 -20.367188 0.078125 -20.679688 0.390625 -20.828125 C 0.554688 -20.921875 0.800781 -20.96875 1.125 -20.96875 L 1.140625 -20.96875 C 1.460938 -20.957031 1.765625 -20.925781 2.046875 -20.875 C 2.335938 -20.832031 2.617188 -20.769531 2.890625 -20.6875 C 3.160156 -20.601562 3.414062 -20.492188 3.65625 -20.359375 C 3.894531 -20.234375 4.128906 -20.09375 4.359375 -19.9375 C 4.671875 -19.695312 4.929688 -19.394531 5.140625 -19.03125 C 5.359375 -18.664062 5.515625 -18.265625 5.609375 -17.828125 C 5.703125 -17.398438 5.75 -16.925781 5.75 -16.40625 C 5.75 -16.082031 5.738281 -15.65625 5.71875 -15.125 C 5.695312 -14.59375 5.671875 -13.945312 5.640625 -13.1875 C 5.597656 -12.445312 5.566406 -11.8125 5.546875 -11.28125 C 5.535156 -10.75 5.53125 -10.328125 5.53125 -10.015625 C 5.53125 -9.867188 5.535156 -9.734375 5.546875 -9.609375 C 5.566406 -9.484375 5.59375 -9.367188 5.625 -9.265625 C 5.65625 -9.171875 5.6875 -9.082031 5.71875 -9 C 5.757812 -8.914062 5.796875 -8.84375 5.828125 -8.78125 C 5.867188 -8.726562 5.914062 -8.679688 5.96875 -8.640625 C 6.207031 -8.472656 6.632812 -8.363281 7.25 -8.3125 L 7.34375 -8.3125 C 7.445312 -8.269531 7.550781 -8.21875 7.65625 -8.15625 C 7.757812 -8.09375 7.84375 -8.023438 7.90625 -7.953125 C 7.976562 -7.878906 8.03125 -7.796875 8.0625 -7.703125 C 8.101562 -7.609375 8.132812 -7.507812 8.15625 -7.40625 C 8.1875 -7.300781 8.203125 -7.191406 8.203125 -7.078125 C 8.203125 -6.972656 8.1875 -6.863281 8.15625 -6.75 C 8.132812 -6.632812 8.09375 -6.53125 8.03125 -6.4375 C 7.882812 -6.125 7.65625 -5.929688 7.34375 -5.859375 L 7.28125 -5.859375 C 6.6875 -5.796875 6.269531 -5.679688 6.03125 -5.515625 C 5.894531 -5.429688 5.800781 -5.347656 5.75 -5.265625 C 5.695312 -5.191406 5.660156 -5.128906 5.640625 -5.078125 C 5.617188 -5.003906 5.597656 -4.921875 5.578125 -4.828125 C 5.554688 -4.734375 5.539062 -4.628906 5.53125 -4.515625 C 5.53125 -4.398438 5.53125 -4.28125 5.53125 -4.15625 C 5.53125 -3.875 5.535156 -3.472656 5.546875 -2.953125 C 5.566406 -2.429688 5.597656 -1.800781 5.640625 -1.0625 C 5.671875 -0.300781 5.695312 0.359375 5.71875 0.921875 C 5.738281 1.492188 5.75 1.96875 5.75 2.34375 C 5.75 3.976562 5.265625 5.128906 4.296875 5.796875 C 3.421875 6.410156 2.332031 6.738281 1.03125 6.78125 C 0.644531 6.78125 0.335938 6.640625 0.109375 6.359375 Z M 0.109375 6.359375 "/></g></g></g></svg>