<svg viewBox="0 0 150 150" fill="#5b0e9f" xmlns="http://www.w3.org/2000/svg" id="Javascript-Fill--Streamline-Remix-Fill" height="150" width="150"><desc>Javascript Fill Streamline Icon: https://streamlinehq.com</desc><path d="M37.5 18.75C27.144687499999996 18.75 18.75 27.144687499999996 18.75 37.5v75c0 10.355625 8.3946875 18.75 18.75 18.75h75c10.355625 0 18.75 -8.394375 18.75 -18.75V37.5c0 -10.3553125 -8.394375 -18.75 -18.75 -18.75H37.5Zm45.839999999999996 81.59375c4.491875 3.6206250000000004 8.983125 5.408125 13.475000000000001 5.3625 2.75 0 4.858125 -0.504375 6.325 -1.5125 1.420625 -0.9625 2.13125 -2.3375 2.13125 -4.125 0 -1.8331250000000001 -0.710625 -3.3918749999999998 -2.13125 -4.675 -1.466875 -1.283125 -4.239375 -2.566875 -8.31875 -3.85 -4.904375 -1.420625 -8.685625 -3.2543750000000005 -11.34375 -5.5 -2.6125 -2.245625 -3.9418750000000005 -5.385625 -3.9875000000000003 -9.41875 0 -3.8043750000000003 1.6500000000000001 -6.989375000000001 4.95 -9.556249999999999 3.208125 -2.566875 7.310625 -3.85 12.30625 -3.85 6.966875 0 12.558125 1.695625 16.775000000000002 5.0874999999999995l-4.8125 7.49375c-1.695625 -1.329375 -3.64375 -2.291875 -5.84375 -2.8875 -2.1999999999999997 -0.6875 -4.170625 -1.03125 -5.9125 -1.03125 -2.3831249999999997 0 -4.285625 0.435625 -5.70625 1.30625 -1.420625 0.8706250000000001 -2.13125 2.0168749999999998 -2.13125 3.4375000000000004 0 1.558125 0.8706250000000001 2.8875 2.6125 3.9875000000000003 1.741875 1.0543749999999998 4.720625 2.223125 8.9375 3.5062500000000005 5.0874999999999995 1.5125 8.708124999999999 3.529375 10.8625 6.05s3.23125 5.729375 3.23125 9.625c0 3.9875000000000003 -1.535625 7.425 -4.60625 10.3125 -3.025 2.841875 -7.425 4.33125 -13.200000000000001 4.46875 -7.5625 0 -13.8875 -2.26875 -18.975 -6.8062499999999995l5.3625 -7.425Zm-34.564687500000005 3.9875000000000003c1.4666875 0.916875 3.23125 1.375 5.29375 1.375 2.1541875 0 3.9416874999999996 -0.61875 5.3625 -1.85625 1.4208749999999999 -1.283125 2.13125 -3.5062500000000005 2.13125 -6.668749999999999v-33.137499999999996h9.2815625v34.925c-0.13749999999999998 5.408125 -1.6962499999999998 9.304375 -4.675 11.6875 -1.6962499999999998 1.420625 -3.5525 2.429375 -5.5690625 3.025 -2.016625 0.595625 -3.9645624999999995 0.8937499999999999 -5.84375 0.8937499999999999 -3.4375000000000004 0 -6.485375 -0.595625 -9.14375 -1.7874999999999999 -2.841625 -1.283125 -5.225 -3.5518750000000003 -7.1499999999999995 -6.8062499999999995l6.4625 -5.29375c1.1916875 1.6043749999999999 2.475 2.81875 3.85 3.64375Z" stroke-width="6.25"></path></svg>