<svg xmlns="http://www.w3.org/2000/svg" xmlns:xlink="http://www.w3.org/1999/xlink" width="500" zoomAndPan="magnify" viewBox="0 0 375 225" height="300" preserveAspectRatio="xMidYMid meet" version="1.2"><defs><clipPath id="95c6104fd3"><path d="M 187.207031 106.609375 L 360.632812 106.609375 L 360.632812 217.488281 L 187.207031 217.488281 Z M 187.207031 106.609375 "/></clipPath><clipPath id="5d36d15cdb"><path d="M 207.703125 169.003906 L 368.867188 169.003906 L 368.867188 208.765625 L 207.703125 208.765625 Z M 207.703125 169.003906 "/></clipPath><clipPath id="95210deb9b"><path d="M 15.617188 102.324219 L 187.515625 102.324219 L 187.515625 217.488281 L 15.617188 217.488281 Z M 15.617188 102.324219 "/></clipPath><clipPath id="4844628ec4"><path d="M 6.085938 164 L 168 164 L 168 208 L 6.085938 208 Z M 6.085938 164 "/></clipPath><clipPath id="d339183f2f"><path d="M 249 7.507812 L 261 7.507812 L 261 20 L 249 20 Z M 249 7.507812 "/></clipPath></defs><g id="524c4f2f04"><g clip-rule="nonzero" clip-path="url(#95c6104fd3)"><path style=" stroke:none;fill-rule:nonzero;fill:#1282a2;fill-opacity:1;" d="M 308.144531 106.769531 L 360.589844 161.820312 C 243.863281 162.0625 187.222656 217.488281 187.222656 217.488281 C 187.222656 217.488281 215.859375 126.679688 308.144531 106.769531 "/></g><g clip-rule="nonzero" clip-path="url(#5d36d15cdb)"><path style=" stroke:none;fill-rule:nonzero;fill:#001931;fill-opacity:1;" d="M 368.867188 204.8125 C 292.027344 186.09375 235.929688 198.554688 207.738281 208.542969 C 230.671875 194.027344 272.867188 173.84375 334.988281 169.25 L 368.867188 204.8125 "/></g><g clip-rule="nonzero" clip-path="url(#95210deb9b)"><path style=" stroke:none;fill-rule:nonzero;fill:#1282a2;fill-opacity:1;" d="M 70.269531 102.582031 L 15.917969 155.757812 C 132.566406 160.101562 187.222656 217.488281 187.222656 217.488281 C 187.222656 217.488281 161.792969 125.730469 70.269531 102.582031 "/></g><g clip-rule="nonzero" clip-path="url(#4844628ec4)"><path style=" stroke:none;fill-rule:nonzero;fill:#001931;fill-opacity:1;" d="M 6.136719 198.433594 C 83.582031 182.425781 139.210938 196.855469 167.035156 207.828125 C 144.621094 192.511719 103.160156 170.859375 41.246094 164.082031 L 6.136719 198.433594 "/></g><path style=" stroke:none;fill-rule:nonzero;fill:#b80c1c;fill-opacity:1;" d="M 320.375 74.785156 L 312.847656 94.476562 C 264.125 104.335938 232.285156 135.117188 214.128906 159.242188 C 229.476562 131.308594 261.753906 88.671875 320.375 74.785156 "/><path style=" stroke:none;fill-rule:nonzero;fill:#b80c1c;fill-opacity:1;" d="M 56.058594 69.371094 L 62.933594 89.433594 C 113.042969 100.363281 144.722656 133.066406 162.382812 158.332031 C 147.769531 129.375 116.171875 84.574219 56.058594 69.371094 "/><path style=" stroke:none;fill-rule:nonzero;fill:#001931;fill-opacity:1;" d="M 188.59375 139.511719 C 188.59375 139.511719 161.347656 91.105469 123.621094 79.566406 C 123.621094 79.566406 178.175781 126.585938 187.316406 212.089844 C 199.457031 126.960938 255.632812 81.890625 255.632812 81.890625 C 217.527344 92.09375 188.59375 139.511719 188.59375 139.511719 "/><path style=" stroke:none;fill-rule:nonzero;fill:#001931;fill-opacity:1;" d="M 207.125 93.417969 C 207.3125 82.609375 199.535156 73.707031 189.753906 73.535156 C 179.972656 73.363281 171.886719 81.984375 171.695312 92.792969 C 171.503906 103.601562 179.28125 112.503906 189.066406 112.675781 C 198.847656 112.847656 206.933594 104.226562 207.125 93.417969 "/><path style=" stroke:none;fill-rule:nonzero;fill:#1282a2;fill-opacity:1;" d="M 212.929688 28.652344 L 180.910156 28.089844 L 180.347656 60.109375 L 212.367188 60.671875 L 212.929688 28.652344 "/><path style=" stroke:none;fill-rule:nonzero;fill:#1282a2;fill-opacity:1;" d="M 229.222656 12.921875 L 213.214844 12.644531 L 212.929688 28.652344 L 228.941406 28.933594 L 229.222656 12.921875 "/><path style=" stroke:none;fill-rule:nonzero;fill:#001931;fill-opacity:1;" d="M 260.835938 51.476562 L 244.828125 51.195312 L 244.542969 67.203125 L 260.554688 67.484375 L 260.835938 51.476562 "/><path style=" stroke:none;fill-rule:nonzero;fill:#b80c1c;fill-opacity:1;" d="M 232.507812 45.011719 L 224.8125 44.875 L 224.675781 52.570312 L 232.371094 52.703125 L 232.507812 45.011719 "/><path style=" stroke:none;fill-rule:nonzero;fill:#b80c1c;fill-opacity:1;" d="M 307.917969 32.613281 L 293.148438 32.355469 L 292.886719 47.125 L 307.65625 47.382812 L 307.917969 32.613281 "/><path style=" stroke:none;fill-rule:nonzero;fill:#001931;fill-opacity:1;" d="M 279.921875 66.378906 L 272.226562 66.242188 L 272.09375 73.9375 L 279.785156 74.074219 L 279.921875 66.378906 "/><g clip-rule="nonzero" clip-path="url(#d339183f2f)"><path style=" stroke:none;fill-rule:nonzero;fill:#b80c1c;fill-opacity:1;" d="M 260.980469 7.710938 L 249.441406 7.507812 L 249.238281 19.046875 L 260.777344 19.25 L 260.980469 7.710938 "/></g><path style=" stroke:none;fill-rule:nonzero;fill:#001931;fill-opacity:1;" d="M 274.71875 23.910156 L 263.066406 23.703125 L 262.859375 35.359375 L 274.515625 35.566406 L 274.71875 23.910156 "/></g></svg>