<svg width="263" height="100" viewBox="0 0 263 100" fill="none" xmlns="http://www.w3.org/2000/svg">
<path d="M20.3333 98.9809L19.2083 95.2309H9.875L8.75 98.9809H3.8147e-06L9.70834 72.3143H19.6667L29.3958 98.9809H20.3333ZM11.6458 89.2518H17.4375L14.6458 79.7518H14.4792L11.6458 89.2518Z" fill="#94000C"/>
<path d="M45.3349 71.856C49.2776 71.856 52.3974 72.8508 54.6891 74.8351C56.9912 76.8091 58.1474 79.6268 58.1474 83.2935H49.9808C49.9808 81.7414 49.5693 80.5122 48.7516 79.606C47.9443 78.7049 46.7933 78.2518 45.2933 78.2518C43.5537 78.2518 42.2776 78.7935 41.4599 79.8768C40.6526 80.9601 40.2516 82.4758 40.2516 84.4185V86.8976C40.2516 88.8039 40.6526 90.3039 41.4599 91.3976C42.2776 92.4966 43.5276 93.0435 45.2099 93.0435C46.861 93.0435 48.111 92.6216 48.9599 91.7726C49.8193 90.9289 50.2516 89.7258 50.2516 88.1685H58.1474C58.1474 91.8091 57.0276 94.6008 54.7933 96.5435C52.5693 98.4758 49.4183 99.4393 45.3349 99.4393C40.7776 99.4393 37.3349 98.283 35.0016 95.9601C32.6683 93.6424 31.5016 90.2049 31.5016 85.6476C31.5016 81.106 32.6683 77.6789 35.0016 75.356C37.3349 73.0226 40.7776 71.856 45.3349 71.856Z" fill="#94000C"/>
<path d="M80.6283 98.9809L79.5033 95.2309H70.1699L69.0449 98.9809H60.2949L70.0033 72.3143H79.9616L89.6908 98.9809H80.6283ZM71.9408 89.2518H77.7324L74.9408 79.7518H74.7741L71.9408 89.2518Z" fill="#94000C"/>
<path d="M104.463 72.3143C113.781 72.3143 118.442 76.7622 118.442 85.6476C118.442 94.5382 113.781 98.9809 104.463 98.9809H92.9215V72.3143H104.463ZM101.484 92.5851H104.297C107.89 92.5851 109.692 90.6632 109.692 86.8143V84.4809C109.692 80.6372 107.89 78.7101 104.297 78.7101H101.484V92.5851Z" fill="#94000C"/>
<path d="M134.256 71.856C137.673 71.856 140.475 72.5539 142.673 73.9393C144.866 75.3143 145.991 77.356 146.048 80.0643V80.5435H138.027V80.3768C138.027 79.6008 137.741 78.9549 137.173 78.4393C136.6 77.9289 135.736 77.6685 134.569 77.6685C133.428 77.6685 132.553 77.8351 131.944 78.1685C131.345 78.5018 131.048 78.9185 131.048 79.4185C131.048 80.1164 131.454 80.6268 132.277 80.9601C133.111 81.2935 134.444 81.6424 136.277 82.0018C138.413 82.4497 140.173 82.9133 141.548 83.3976C142.934 83.8716 144.142 84.6476 145.173 85.731C146.215 86.8143 146.746 88.2883 146.777 90.1476C146.777 93.3039 145.704 95.6424 143.569 97.1685C141.444 98.6841 138.595 99.4393 135.027 99.4393C130.871 99.4393 127.637 98.7466 125.319 97.356C123.012 95.9549 121.861 93.4914 121.861 89.9601H129.965C129.965 91.2935 130.309 92.1893 131.006 92.6476C131.699 93.0955 132.782 93.3143 134.256 93.3143C135.34 93.3143 136.236 93.2049 136.944 92.981C137.663 92.7466 138.027 92.2674 138.027 91.5435C138.027 90.8924 137.631 90.408 136.84 90.0851C136.048 89.7674 134.762 89.4289 132.986 89.0643C130.819 88.5955 129.017 88.106 127.59 87.606C126.173 87.106 124.928 86.2726 123.861 85.106C122.803 83.9393 122.277 82.3664 122.277 80.3768C122.277 77.4601 123.407 75.3143 125.673 73.9393C127.934 72.5539 130.798 71.856 134.256 71.856Z" fill="#94000C"/>
<path d="M166.005 72.3143C167.656 72.3143 169.13 72.6997 170.421 73.4601C171.713 74.2257 172.718 75.2726 173.442 76.6059C174.161 77.9393 174.526 79.4341 174.526 81.0851V81.5851C174.526 83.2414 174.161 84.7414 173.442 86.0851C172.718 87.4184 171.713 88.4705 170.421 89.2309C169.13 89.9966 167.656 90.3768 166.005 90.3768H159.609V98.9809H151.046V72.3143H166.005ZM159.609 84.1476H163.13C164.031 84.1476 164.703 83.9184 165.151 83.4601C165.609 82.9914 165.838 82.3507 165.838 81.5434V81.2309C165.838 80.4132 165.609 79.7726 165.151 79.3143C164.703 78.8559 164.031 78.6268 163.13 78.6268H159.609V84.1476Z" fill="#94000C"/>
<path d="M196.878 98.9809L195.753 95.2309H186.42L185.295 98.9809H176.545L186.253 72.3143H196.211L205.941 98.9809H196.878ZM188.191 89.2518H193.982L191.191 79.7518H191.024L188.191 89.2518Z" fill="#94000C"/>
<path d="M221.88 71.856C225.822 71.856 228.942 72.8508 231.234 74.8351C233.536 76.8091 234.692 79.6268 234.692 83.2935H226.525C226.525 81.7414 226.114 80.5122 225.296 79.606C224.489 78.7049 223.338 78.2518 221.838 78.2518C220.098 78.2518 218.822 78.7935 218.005 79.8768C217.197 80.9601 216.796 82.4758 216.796 84.4185V86.8976C216.796 88.8039 217.197 90.3039 218.005 91.3976C218.822 92.4966 220.072 93.0435 221.755 93.0435C223.406 93.0435 224.656 92.6216 225.505 91.7726C226.364 90.9289 226.796 89.7258 226.796 88.1685H234.692C234.692 91.8091 233.572 94.6008 231.338 96.5435C229.114 98.4758 225.963 99.4393 221.88 99.4393C217.322 99.4393 213.88 98.283 211.546 95.9601C209.213 93.6424 208.046 90.2049 208.046 85.6476C208.046 81.106 209.213 77.6789 211.546 75.356C213.88 73.0226 217.322 71.856 221.88 71.856Z" fill="#94000C"/>
<path d="M239.319 72.3143H262.36V78.7101H247.881V82.3976H260.277V88.5226H247.881V92.5851H262.631V98.9809H239.319V72.3143Z" fill="#94000C"/>
<mask id="mask0_13_164" style="mask-type:luminance" maskUnits="userSpaceOnUse" x="131" y="30" width="54" height="34">
<path d="M131.937 30.1302H184.667V63.8437H131.937V30.1302Z" fill="white"/>
</mask>
<g mask="url(#mask0_13_164)">
<path d="M168.708 30.1771L184.656 46.9166C149.167 46.9896 131.943 63.8437 131.943 63.8437C131.943 63.8437 140.651 36.2344 168.708 30.1771Z" fill="#1282A2"/>
</g>
<mask id="mask1_13_164" style="mask-type:luminance" maskUnits="userSpaceOnUse" x="138" y="49" width="49" height="13">
<path d="M138.167 49.1042H186.864V61.1927H138.167V49.1042Z" fill="white"/>
</mask>
<g mask="url(#mask1_13_164)">
<path d="M187.172 59.9896C163.807 54.2969 146.75 58.0886 138.177 61.125C145.151 56.7083 157.984 50.5729 176.87 49.1771L187.172 59.9896Z" fill="#002242"/>
</g>
<mask id="mask2_13_164" style="mask-type:luminance" maskUnits="userSpaceOnUse" x="79" y="28" width="54" height="36">
<path d="M79.7655 28.8281H132.031V63.8438H79.7655V28.8281Z" fill="white"/>
</mask>
<g mask="url(#mask2_13_164)">
<path d="M96.3801 28.9062L79.8593 45.0729C115.323 46.3958 131.943 63.8438 131.943 63.8438C131.943 63.8438 124.213 35.9427 96.3801 28.9062Z" fill="#1282A2"/>
</g>
<mask id="mask3_13_164" style="mask-type:luminance" maskUnits="userSpaceOnUse" x="76" y="46" width="51" height="16">
<path d="M76.8645 46.3854H126.031V61.0521H76.8645V46.3854Z" fill="white"/>
</mask>
<g mask="url(#mask3_13_164)">
<path d="M76.8853 58.0521C100.432 53.1823 117.344 57.5729 125.802 60.9063C118.99 56.25 106.385 49.6667 87.5572 47.6042L76.8853 58.0521Z" fill="#002242"/>
</g>
<path d="M172.427 20.4531L170.141 26.4427C155.323 29.4427 145.641 38.8021 140.125 46.1354C144.792 37.6406 154.604 24.6771 172.427 20.4531Z" fill="#941315"/>
<path d="M92.0624 18.8073L94.1509 24.9063C109.391 28.2292 119.021 38.1771 124.391 45.8594C119.948 37.0521 110.338 23.4323 92.0624 18.8073Z" fill="#941315"/>
<path d="M132.359 40.1354C132.359 40.1354 124.073 25.4167 112.604 21.9062C112.604 21.9062 129.193 36.2031 131.969 62.2031C135.661 36.3177 152.745 22.6146 152.745 22.6146C141.156 25.7188 132.359 40.1354 132.359 40.1354Z" fill="#002242"/>
<path d="M137.995 26.1198C138.052 22.8333 135.687 20.125 132.713 20.0729C129.739 20.0208 127.281 22.6458 127.224 25.9323C127.161 29.2187 129.526 31.9219 132.505 31.9739C135.479 32.026 137.937 29.4062 137.995 26.1198Z" fill="#002242"/>
<path d="M139.76 6.42706L130.021 6.25519L129.854 15.9948L139.588 16.1614L139.76 6.42706Z" fill="#1282A2"/>
<path d="M144.713 1.64583L139.844 1.5625L139.76 6.42708L144.625 6.51562L144.713 1.64583Z" fill="#1282A2"/>
<path d="M154.323 13.3698L149.458 13.2812L149.37 18.151L154.239 18.2344L154.323 13.3698Z" fill="#002242"/>
<path d="M145.713 11.401L143.37 11.3594L143.328 13.6979L145.672 13.7396L145.713 11.401Z" fill="#941315"/>
<path d="M168.641 7.6354L164.151 7.55206L164.068 12.0469L168.562 12.125L168.641 7.6354Z" fill="#941315"/>
<path d="M160.13 17.901L157.786 17.8594L157.745 20.1979L160.088 20.2396L160.13 17.901Z" fill="#001931"/>
<mask id="mask4_13_164" style="mask-type:luminance" maskUnits="userSpaceOnUse" x="150" y="0" width="6" height="4">
<path d="M150.031 0H155.364V3.71875H150.031V0Z" fill="white"/>
</mask>
<g mask="url(#mask4_13_164)">
<path d="M154.37 0.0625L150.859 0L150.797 3.50521L154.307 3.56771L154.37 0.0625Z" fill="#941315"/>
</g>
<path d="M158.547 4.98438L155 4.92188L154.937 8.46875L158.484 8.53125L158.547 4.98438Z" fill="#001931"/>
</svg>
